<?xml version="1.0" encoding="UTF-8"?>
<svg width="48px" height="50px" viewBox="0 0 48 50" version="1.1" xmlns="http://www.w3.org/2000/svg" xmlns:xlink="http://www.w3.org/1999/xlink">
    <title>编组 11</title>
    <defs>
        <path d="M4,0 L44,0 C46.209,0 48,1.78186224 48,3.97959184 L48,43.7755102 C48,45.9732398 46.209,47.755102 44,47.755102 L4,47.755102 C1.791,47.755102 0,45.9732398 0,43.7755102 L0,3.97959184 C0,1.78186224 1.791,0 4,0" id="path-1"></path>
    </defs>
    <g id="首页" stroke="none" stroke-width="1" fill="none" fill-rule="evenodd">
        <g id="首页2（两个可视化图表）" transform="translate(-354.000000, -690.000000)">
            <g id="椭圆形" transform="translate(350.000000, 690.000000)">
                <g id="编组" transform="translate(4.000000, 0.000000)">
                    <g id="椭圆形" transform="translate(0.000100, 0.196844)">
                        <g id="编组-11" transform="translate(-0.000100, 0.803156)">
                            <mask id="mask-2" fill="white">
                                <use xlink:href="#path-1"></use>
                            </mask>
                            <use id="蒙版" fill="#E8F5EF" xlink:href="#path-1"></use>
                            <circle id="椭圆形" fill="#4ECE93" mask="url(#mask-2)" cx="48.2" cy="1.2" r="7.2"></circle>
                            <path d="M34.541,28.3125957 L33.699,28.3125957 L33.699,21.2249426 C33.701,19.9942538 33.451,18.7755038 32.966,17.6433099 C32.019,15.4316518 30.249,13.6696875 28.026,12.7275191 C25.723,11.7574936 23.123,11.7574936 20.82,12.7275191 C18.597,13.6706824 16.827,15.4316518 15.879,17.6433099 C15.395,18.7755038 15.146,19.9942538 15.148,21.2249426 L15.148,28.3125957 L14.303,28.3125957 C13.583,28.3125957 13,28.8926212 13,29.6089477 C13,30.3242793 13.583,30.9052997 14.303,30.9052997 L34.542,30.9052997 C35.262,30.9052997 35.845,30.3242793 35.845,29.6089477 C35.845,28.8926212 35.262,28.3125957 34.542,28.3125957 L34.541,28.3125957 Z" id="Fill-109" fill="#179E5C" mask="url(#mask-2)"></path>
                            <path d="M26.642,35.0480548 L22.201,35.0480548 C21.446,35.0679528 20.818,34.4759885 20.797,33.7248406 C20.777,32.9746875 21.372,32.3488967 22.127,32.3289987 C22.152,32.3280038 22.176,32.3280038 22.201,32.3289987 L26.642,32.3289987 C27.396,32.3091008 28.025,32.9010651 28.045,33.6512181 C28.066,34.4023661 27.471,35.027162 26.716,35.0480548 C26.691,35.0480548 26.666,35.0480548 26.642,35.0480548" id="Fill-111" fill="#179E5C" mask="url(#mask-2)"></path>
                        </g>
                    </g>
                </g>
            </g>
        </g>
    </g>
</svg>