<?xml version="1.0" encoding="UTF-8"?>
<svg width="48px" height="48px" viewBox="0 0 48 48" version="1.1" xmlns="http://www.w3.org/2000/svg" xmlns:xlink="http://www.w3.org/1999/xlink">
    <title>编组 18</title>
    <defs>
        <path d="M4,1.33333333 C1.79,1.33333333 0,3.07458333 0,5.22125 L0,5.22125 L0,44.1111111 C0,46.2577778 1.79,48 4,48 L4,48 L44,48 C46.209,48 48,46.2577778 48,44.1111111 L48,44.1111111 L48,5.22125 C48,3.07458333 46.209,1.33333333 44,1.33333333 L44,1.33333333" id="path-1"></path>
    </defs>
    <g id="首页" stroke="none" stroke-width="1" fill="none" fill-rule="evenodd">
        <g id="首页2（两个可视化图表）" transform="translate(-250.000000, -690.000000)">
            <g id="编组-18" transform="translate(250.000000, 690.000000)">
                <g id="编组"></g>
                <path d="M4,1.33333333 L44,1.33333333 C46.209,1.33333333 48,3.07458333 48,5.22222222 L48,44.1111111 C48,46.25875 46.209,48 44,48 L4,48 C1.791,48 0,46.25875 0,44.1111111 L0,5.22222222 C0,3.07458333 1.791,1.33333333 4,1.33333333" id="Fill-125" fill="#FFF2EE"></path>
                <path d="M28.8,27.1082654 C28.2744318,26.8874329 27.7346591,26.6988459 27.1847403,26.5415271 C26.6794643,26.4017968 26.3872565,25.8936867 26.5313312,25.4070735 C26.5546672,25.3298798 26.5881494,25.2556175 26.6327922,25.186241 C27.1238636,24.3459049 27.5449269,23.4694148 27.8939529,22.565565 C28.1861607,21.682235 28.289651,20.7520025 28.198336,19.8295871 C28.2876218,18.9013089 28.271388,17.9671679 28.1486201,17.0418211 C27.4495536,14.6576118 25.6760146,14 23.6041802,14 C21.5323458,14 19.7486607,14.6595661 19.0546672,17.0476839 C18.9369724,17.9710765 18.9207386,18.9032632 19.0079951,19.8295871 C18.9156656,20.7549339 19.0201705,21.6880978 19.3123782,22.5733821 C19.6624188,23.4801633 20.0844968,24.3595848 20.5745536,25.2038294 C20.8434253,25.6386544 20.6973214,26.2014842 20.2468344,26.4623792 C20.1768263,26.5034189 20.1017451,26.5366415 20.0236201,26.5600927 C18.1587662,27.2108646 16.3588474,28.0228637 14.6461851,28.9863188 C11.6764205,30.2565942 11.6571429,31.6441259 11.6571429,31.6441259 L11.6571429,33.0824685 C11.6612013,33.5915558 12.0913961,34.0009754 12.6189935,34 L25.8180601,34 C25.2803166,31.3363284 26.4552354,28.6228246 28.7989854,27.1160825 L28.8,27.1082654 Z" id="Fill-127" fill="#FF7048"></path>
                <path d="M28.6410269,28 L31.016116,28 C31.3070597,28 31.5428571,28.2292476 31.5428571,28.5121094 L31.5428571,30.8212239 C31.5428571,31.1040858 31.3070597,31.3333333 31.016116,31.3333333 L28.6410269,31.3333333 C28.3500832,31.3333333 28.1142857,31.1040858 28.1142857,30.8212239 L28.1142857,28.5121094 C28.1142857,28.2292476 28.3500832,28 28.6410269,28" id="Fill-129" fill="#FF7048"></path>
                <path d="M32.7553126,32.6666667 L35.1304017,32.6666667 C35.4213454,32.6666667 35.6571429,32.8959142 35.6571429,33.1787761 L35.6571429,35.4878906 C35.6571429,35.7707524 35.4213454,36 35.1304017,36 L32.7553126,36 C32.4643689,36 32.2285714,35.7707524 32.2285714,35.4878906 L32.2285714,33.1787761 C32.2285714,32.8959142 32.4643689,32.6666667 32.7553126,32.6666667" id="Fill-131" fill="#FF7048"></path>
                <path d="M35.6571429,30.5559253 C35.6552413,30.9839157 35.2986927,31.3314846 34.8575232,31.3333333 L33.0281911,31.3333333 C32.5870216,31.3324089 32.2295222,30.9848401 32.2285714,30.5559253 L32.2285714,28.777408 C32.2295222,28.3484933 32.5870216,28.0009244 33.0281911,28 L35.6571429,28 L35.6571429,30.5559253 Z" id="Fill-133" fill="#FF7048"></path>
                <path d="M28.6410269,32.6666667 L31.016116,32.6666667 C31.3070597,32.6666667 31.5428571,32.8959142 31.5428571,33.1787761 L31.5428571,35.4878906 C31.5428571,35.7707524 31.3070597,36 31.016116,36 L28.6410269,36 C28.3500832,36 28.1142857,35.7707524 28.1142857,35.4878906 L28.1142857,33.1787761 C28.1142857,32.8959142 28.3500832,32.6666667 28.6410269,32.6666667" id="Fill-135" fill="#FF7048"></path>
                <g id="编组-26"></g>
                <g id="编组"></g>
                <mask id="mask-2" fill="white">
                    <use xlink:href="#path-1"></use>
                </mask>
                <g id="Clip-139"></g>
                <path d="M46.6285714,-4.66666667 C50.4156735,-4.66666667 53.4857143,-1.53266667 53.4857143,2.33333333 C53.4857143,6.19933333 50.4156735,9.33333333 46.6285714,9.33333333 C42.8414694,9.33333333 39.7714286,6.19933333 39.7714286,2.33333333 C39.7714286,-1.53266667 42.8414694,-4.66666667 46.6285714,-4.66666667" id="Fill-138" fill="#4ECE93" mask="url(#mask-2)"></path>
            </g>
        </g>
    </g>
</svg>