<?xml version="1.0" encoding="UTF-8"?>
<svg width="48px" height="48px" viewBox="0 0 48 48" version="1.1" xmlns="http://www.w3.org/2000/svg" xmlns:xlink="http://www.w3.org/1999/xlink">
    <title>编组 25</title>
    <defs>
        <path d="M4.001,0.197142857 C1.791,0.197142857 0,1.9790051 0,4.17673469 L0,4.17673469 L0,43.9716582 C0,46.1703827 1.791,47.9522449 4.001,47.9522449 L4.001,47.9522449 L44,47.9522449 C46.209,47.9522449 48,46.1703827 48,43.9716582 L48,43.9716582 L48,4.17673469 C48,1.9790051 46.209,0.197142857 44,0.197142857 L44,0.197142857" id="path-1"></path>
    </defs>
    <g id="首页" stroke="none" stroke-width="1" fill="none" fill-rule="evenodd">
        <g id="首页2（两个可视化图表）" transform="translate(-460.000000, -690.000000)">
            <g id="编组-25" transform="translate(460.000000, 690.000000)">
                <g id="编组">
                    <path d="M4.0001,0.196844388 L44.0001,0.196844388 C46.2091,0.196844388 48.0001,1.97870663 48.0001,4.17643622 L48.0001,43.9723546 C48.0001,46.1700842 46.2091,47.9519464 44.0001,47.9519464 L4.0001,47.9519464 C1.7911,47.9519464 0.0001,46.1700842 0.0001,43.9723546 L0.0001,4.17643622 C0.0001,1.97870663 1.7911,0.196844388 4.0001,0.196844388" id="Fill-117" fill="#FFF7EE"></path>
                    <path d="M24.6661,27.5249005 C24.2411,27.6870689 23.7911,27.7726301 23.3361,27.7766097 C21.1101,27.8482423 19.2461,26.1111505 19.1741,23.8965077 C19.1021,21.6818648 20.8471,19.8283699 23.0741,19.7557423 C25.3001,19.6841097 27.1631,21.4212015 27.2351,23.6358444 C27.2491,24.0517117 27.1981,24.4665842 27.0831,24.8675281 C29.4261,23.211023 32.4611,22.8727577 35.1151,23.9721199 L35.1151,23.8358189 C35.0941,23.0518393 35.0111,22.2708444 34.8681,21.4997985 C34.7421,20.8192883 34.3401,20.3825281 33.8481,20.3914821 L33.7481,20.3914821 C32.0431,20.3755638 30.6731,18.9896709 30.6841,17.2943648 C30.7041,16.8864566 30.7941,16.4845179 30.9531,16.1074515 C31.2091,15.5035485 31.0161,14.8041352 30.4861,14.416125 L30.4561,14.3932423 L27.5101,12.7397219 L27.4781,12.7247985 C27.2991,12.6462015 27.1061,12.6074005 26.9111,12.6083954 C26.4981,12.6054107 26.1011,12.7695689 25.8111,13.0630638 C25.0021,14.387273 23.2681,14.8091097 21.9371,14.0042372 C21.5411,13.7654617 21.2111,13.4331658 20.9751,13.0362015 C20.6841,12.738727 20.2831,12.5715842 19.8661,12.5754037 C19.6741,12.5725791 19.4841,12.6113801 19.3081,12.6869923 L19.2751,12.6989311 L16.2241,14.3902577 L16.1951,14.4131403 C15.6621,14.7991607 15.4671,15.5005638 15.7241,16.1044668 C15.8821,16.4815332 15.9731,16.8834719 15.9931,17.292375 C16.0041,18.988676 14.6331,20.3745689 12.9281,20.3894923 L12.8281,20.3894923 C12.3351,20.3785485 11.9281,20.8163036 11.8061,21.4978087 C11.6641,22.2688546 11.5811,23.0498495 11.5591,23.8338291 C11.5821,24.6168138 11.6641,25.3968138 11.8051,26.1678597 C11.9301,26.8394158 12.3241,27.276176 12.8051,27.276176 L12.9251,27.276176 C14.6291,27.2950791 15.9981,28.6789821 15.9901,30.3742883 C15.9711,30.7812015 15.8801,31.1821454 15.7231,31.5592117 C15.4651,32.1641097 15.6571,32.8665077 16.1891,33.2565077 L16.2181,33.2774005 L19.1071,34.911023 L19.1371,34.9249515 C19.3161,35.0025536 19.5101,35.0413546 19.7051,35.0394376 C20.1241,35.0423495 20.5251,34.8732168 20.8131,34.5717628 C21.4491,33.8325536 22.3161,33.3271454 23.2761,33.136125 C23.4041,33.1371199 23.5311,33.1540332 23.6541,33.1858699 C23.5601,32.6933954 23.5091,32.1939566 23.5041,31.693523 C23.5131,30.2260485 23.9141,28.787426 24.6661,27.5249005" id="Fill-119" fill="#FFAD4B"></path>
                    <path d="M37.2052,33.8484719 C37.2052,33.8484719 37.1982,33.1371199 35.7272,32.4914311 C34.8762,31.9989566 33.9832,31.5840842 33.0572,31.2517883 C32.8072,31.1781658 32.6632,30.9175026 32.7372,30.6687781 C32.7482,30.6309719 32.7642,30.5951556 32.7842,30.5613291 C33.0262,30.133523 33.2332,29.6878087 33.4052,29.2281658 C33.5502,28.7784719 33.6012,28.3049005 33.5552,27.8353087 C33.5992,27.3617372 33.5912,26.886176 33.5312,26.4155893 C33.0712,25.1839056 31.6942,24.5571199 30.4562,25.014773 C29.8052,25.2565332 29.2912,25.7669158 29.0492,26.4155893 C28.9912,26.8851811 28.9832,27.3607423 29.0262,27.832324 C28.9812,28.3019158 29.0322,28.7754872 29.1762,29.2251811 C29.3482,29.6868138 29.5562,30.1345179 29.7982,30.5643138 C29.9312,30.7851811 29.8582,31.0717117 29.6362,31.2040332 C29.6022,31.224926 29.5652,31.2418393 29.5272,31.2527832 C28.6082,31.5840842 27.7212,31.9969668 26.8772,32.4874515 C25.4132,33.1341352 25.4052,33.8405128 25.4052,33.8405128 L25.4052,34.5727577 C25.4072,34.8314311 25.6192,35.0403597 25.8792,35.0393683 L36.7332,35.0393683 C36.9932,35.0393683 37.2042,34.8314311 37.2052,34.5727577 L37.2052,33.8484719 Z" id="Fill-121" fill="#FFAD4B"></path>
                </g>
                <g id="编组">
                    <mask id="mask-2" fill="white">
                        <use xlink:href="#path-1"></use>
                    </mask>
                    <g id="Clip-124"></g>
                    <path d="M47.0001,-5.77254337 C50.8661,-5.77254337 54.0001,-2.65453316 54.0001,1.19174235 C54.0001,5.03801786 50.8661,8.15602806 47.0001,8.15602806 C43.1341,8.15602806 40.0001,5.03801786 40.0001,1.19174235 C40.0001,-2.65453316 43.1341,-5.77254337 47.0001,-5.77254337" id="Fill-123" fill="#4ECE93" mask="url(#mask-2)"></path>
                </g>
            </g>
        </g>
    </g>
</svg>