<?xml version="1.0" encoding="UTF-8"?>
<svg width="48px" height="49px" viewBox="0 0 48 49" version="1.1" xmlns="http://www.w3.org/2000/svg" xmlns:xlink="http://www.w3.org/1999/xlink">
    <title>编组 32</title>
    <defs>
        <path d="M4,0 L44,0 C46.209,0 48,1.75444898 48,3.91836735 L48,43.1020408 C48,45.2659592 46.209,47.0204082 44,47.0204082 L4,47.0204082 C1.791,47.0204082 0,45.2659592 0,43.1020408 L0,3.91836735 C0,1.75444898 1.791,0 4,0" id="path-1"></path>
        <filter id="filter-3">
            <feColorMatrix in="SourceGraphic" type="matrix" values="0 0 0 0 1.000000 0 0 0 0 0.678431 0 0 0 0 0.294118 0 0 0 1.000000 0"></feColorMatrix>
        </filter>
    </defs>
    <g id="首页" stroke="none" stroke-width="1" fill="none" fill-rule="evenodd">
        <g id="首页2（两个可视化图表）" transform="translate(-775.000000, -689.000000)">
            <g id="编组-32" transform="translate(775.000000, 689.000000)">
                <g id="Fill-123" transform="translate(0.000100, 0.265611)">
                    <mask id="mask-2" fill="white">
                        <use xlink:href="#path-1"></use>
                    </mask>
                    <use id="蒙版" fill="#FFF7EE" xlink:href="#path-1"></use>
                    <path d="M47,-5.87755102 C50.866,-5.87755102 54,-2.8075102 54,0.979591837 C54,4.76669388 50.866,7.83673469 47,7.83673469 C43.134,7.83673469 40,4.76669388 40,0.979591837 C40,-2.8075102 43.134,-5.87755102 47,-5.87755102" fill="#4ECE93" mask="url(#mask-2)"></path>
                </g>
                <g filter="url(#filter-3)" id="图标/系统图标/租户组">
                    <g transform="translate(13.963636, 12.857143)">
                        <g id="租户组" transform="translate(0.000000, -0.000000)" fill-rule="nonzero">
                            <rect id="矩形" fill="#000000" opacity="0" x="0" y="0" width="22.5368486" height="22.1344049"></rect>
                            <path d="M13.6398425,3.86376743 L20.3401161,7.76983887 C20.7444707,8.00907689 20.9915053,8.43901957 20.9910006,8.90264661 L20.9910006,20.7853766 L12.4720806,20.7853766 L13.6398425,3.86376743 Z" id="路径" fill-opacity="0.6" fill="#FEA940"></path>
                            <path d="M0.564737332,19.4880532 L22.1156886,19.4880532 C22.4921801,19.4880532 22.6804259,19.6729375 22.6804259,20.042706 L22.6804259,21.5750517 C22.6804259,21.9448202 22.4921801,22.1297044 22.1156886,22.1297044 L0.564737332,22.1297044 C0.188245777,22.1297044 0,21.9448202 0,21.5750517 L0,20.042706 C0,19.6729375 0.188245777,19.4880532 0.564737332,19.4880532 Z" id="路径" fill="#154AD8"></path>
                            <path d="M2.53653213,0 L14.3385854,0 C14.8969415,0 15.1761195,0.274192743 15.1761195,0.82257823 L15.1761195,20.3952395 C15.1761195,20.943625 14.8969415,21.2178177 14.3385854,21.2178177 L2.53653213,21.2178177 C1.97817599,21.2178177 1.69899793,20.943625 1.69899793,20.3952395 L1.69899793,0.82257823 C1.69899793,0.274192743 1.97817599,0 2.53653213,0 Z" id="路径" fill="#154AD8"></path>
                        </g>
                    </g>
                </g>
            </g>
        </g>
    </g>
</svg>