<?xml version="1.0" encoding="UTF-8"?>
<svg width="16px" height="12px" viewBox="0 0 16 12" version="1.1" xmlns="http://www.w3.org/2000/svg" xmlns:xlink="http://www.w3.org/1999/xlink">
    <title>编组 33</title>
    <g id="首页" stroke="none" stroke-width="1" fill="none" fill-rule="evenodd">
        <g id="首页（缺省）" transform="translate(-1086.000000, -177.000000)">
            <g id="编组-33" transform="translate(1087.000000, 178.000000)">
                <path d="M7.1637511,4.8709375 C7.49609485,4.8709375 7.7656261,4.60140625 7.7656261,4.2690625 L7.7656261,1.601875 C7.7656261,1.26953125 7.49609485,1 7.1637511,1 C6.83140735,1 6.5618761,1.26953125 6.5618761,1.601875 L6.5618761,4.2690625 C6.5618761,4.60140625 6.83140735,4.8709375 7.1637511,4.8709375 Z M7.8021886,5.74546875 C7.63140735,5.40625 7.2178136,5.2696875 6.87859485,5.44046875 C6.5393761,5.61125 6.4028136,6.02484375 6.57359485,6.36421875 C6.7443761,6.7034375 7.15796985,6.84 7.49734485,6.66921875 C7.83640735,6.49828125 7.97296985,6.0846875 7.8021886,5.74546875 Z" id="形状" fill="#154AD8" fill-rule="nonzero"></path>
                <rect id="矩形" stroke="#154AD8" x="0" y="0" width="14" height="8" rx="1.5"></rect>
                <g id="编组-22" transform="translate(4.000000, 8.000000)" stroke="#154AD8" stroke-linecap="round">
                    <line x1="3" y1="0" x2="3" y2="1.50051348" id="路径-17"></line>
                    <line x1="0" y1="1.63629473" x2="6.26206646" y2="1.63629473" id="路径-18"></line>
                </g>
            </g>
        </g>
    </g>
</svg>