<?xml version="1.0" encoding="UTF-8"?>
<svg width="48px" height="48px" viewBox="0 0 48 48" version="1.1" xmlns="http://www.w3.org/2000/svg" xmlns:xlink="http://www.w3.org/1999/xlink">
    <title>编组 36</title>
    <defs>
        <path d="M4,0 L44,0 C46.209,0 48,1.791 48,4 L48,44 C48,46.209 46.209,48 44,48 L4,48 C1.791,48 0,46.209 0,44 L0,4 C0,1.791 1.791,0 4,0" id="path-1"></path>
        <filter id="filter-3">
            <feColorMatrix in="SourceGraphic" type="matrix" values="0 0 0 0 0.082353 0 0 0 0 0.290196 0 0 0 0 0.847059 0 0 0 1.000000 0"></feColorMatrix>
        </filter>
    </defs>
    <g id="首页" stroke="none" stroke-width="1" fill="none" fill-rule="evenodd">
        <g id="首页2（两个可视化图表）" transform="translate(-565.000000, -689.000000)">
            <g id="编组-36" transform="translate(565.000000, 689.000000)">
                <g id="编组-35">
                    <mask id="mask-2" fill="white">
                        <use xlink:href="#path-1"></use>
                    </mask>
                    <use id="蒙版" fill="#EBF1FB" xlink:href="#path-1"></use>
                    <path d="M47.0001,-6.17142857 C50.8661,-6.17142857 54.0001,-3.0136723 54.0001,0.881632653 C54.0001,4.77693761 50.8661,7.93469388 47.0001,7.93469388 C43.1341,7.93469388 40.0001,4.77693761 40.0001,0.881632653 C40.0001,-3.0136723 43.1341,-6.17142857 47.0001,-6.17142857" id="Fill-105" fill="#4ECE93" mask="url(#mask-2)"></path>
                </g>
                <g id="图标/系统图标/单位管理" transform="translate(12.857143, 13.333333)" filter="url(#filter-3)">
                    <g id="租户管理" transform="translate(0.000000, -0.000000)" fill-rule="nonzero">
                        <rect id="矩形" fill="#000000" opacity="0" x="0" y="0" width="21.8169899" height="22.6250266"></rect>
                        <path d="M11.6776295,13.861796 C11.299414,14.0123106 10.8982742,14.0914086 10.4931842,14.0953486 C9.06103991,14.1199295 7.75667791,13.244199 7.19211772,11.8790584 C6.62755753,10.5139178 6.91484205,8.93029357 7.91917454,7.87123784 C8.92350703,6.81218211 10.4455672,6.48787555 11.7711894,7.05048599 C13.0968116,7.61309643 13.9629123,8.95096795 13.9631084,10.436358 C13.9594234,10.7610966 13.9145521,11.0839207 13.8296498,11.3965187 C15.9142545,9.8617135 18.6144624,9.54948866 20.9738567,10.5704345 L20.9738567,10.4450081 C20.953854,9.71934857 20.8799549,8.99636665 20.7528159,8.28248415 C20.6402102,7.65102715 20.2815401,7.24447263 19.843629,7.25312273 L19.7518762,7.25312273 C18.2355849,7.2388512 17.0169188,5.95376014 17.0284862,4.38129088 C17.0445959,4.00342499 17.1250786,3.6314996 17.2662093,3.28272871 C17.5005998,2.72281299 17.3269679,2.06918501 16.8491511,1.7127363 L16.8241277,1.69111106 L14.1799787,0.151393973 L14.1799787,0.13841883 C14.0154508,0.0648235912 13.8378228,0.0279822287 13.6586559,0.0302926348 C13.2901853,0.0309054207 12.9378347,0.187059545 12.6827397,0.462797437 C12.3616049,0.808801283 11.3523241,1.7127363 10.5348901,1.7127363 C9.717456,1.7127363 8.69983397,0.782850974 8.37869917,0.432522102 C8.12003426,0.154374248 7.76288748,-0.00190188632 7.39027124,-1.70246487e-07 C7.21974567,-0.000817779778 7.05085536,0.0345056826 6.89397198,0.103818447 L6.86477791,0.103818447 L4.17058196,1.68678601 L4.12470556,1.73003649 C3.64892272,2.08598319 3.47551773,2.73695841 3.70764738,3.29570386 C3.84785206,3.64629097 3.92828794,4.01946324 3.94537054,4.39859107 C3.9509221,5.15451937 3.66666879,5.88177153 3.15514744,6.42034922 C2.64362609,6.95892692 1.94674111,7.26470926 1.21780993,7.27042292 L1.13022771,7.27042292 C0.713169511,7.27042292 0.333646566,7.66832734 0.221040836,8.29978434 C0.093901775,9.01366684 0.0200026979,9.73664876 0,10.4623083 C0.0220414956,11.1876207 0.0945197621,11.9103385 0.216870254,12.6248323 C0.329475963,13.2476392 0.679804856,13.6541937 1.11354539,13.6541937 L1.21780993,13.6541937 C2.73476543,13.6684663 3.95462702,14.9528511 3.94537054,16.5260256 C3.92987862,16.9039766 3.84937171,17.2760137 3.70764738,17.6245878 C3.47098584,18.1856697 3.64484616,18.8419602 4.12470556,19.1989052 L4.14972905,19.1989052 L6.71880755,20.716997 L6.74800162,20.716997 C6.90746525,20.7874759 7.07931105,20.8228234 7.25264204,20.8208805 C7.62430531,20.8240909 7.9806637,20.667499 8.23689939,20.3882934 C8.5371813,20.0379645 9.58816794,19.0561786 10.4264549,19.0561786 C10.5405523,19.05709 10.6540725,19.0730773 10.7642721,19.1037542 C10.428682,17.2994496 10.7543775,15.430212 11.6776295,13.861796 Z" id="路径" fill="#154AD8"></path>
                        <path d="M18.5257251,14.4110771 L21.2949915,16.1410963 C21.4655762,16.2442588 21.5704113,16.4336915 21.5702501,16.6384768 L21.5702501,21.8285344 L18.0419376,21.8285344 L18.5257251,14.4110771 Z" id="路径" fill="#5E99FF"></path>
                        <path d="M13.0997979,21.257628 L22.0415257,21.257628 C22.1972274,21.257628 22.2750783,21.3383623 22.2750783,21.4998307 L22.2750783,22.1745382 C22.2750783,22.3360067 22.1972274,22.4167409 22.0415257,22.4167409 L13.0997979,22.4167409 C12.9440962,22.4167409 12.8662454,22.3360067 12.8662454,22.1745382 L12.8662454,21.4998307 C12.8662454,21.3383623 12.9440962,21.257628 13.0997979,21.257628 L13.0997979,21.257628 Z" id="路径" fill="#5E99FF"></path>
                        <path d="M13.9214026,12.7199834 L18.8134952,12.7199834 C19.0470478,12.7199834 19.1638241,12.8410847 19.1638241,13.0832874 L19.1638241,21.6512074 C19.1638241,21.8934101 19.0470478,22.0145114 18.8134952,22.0145114 L13.9214026,22.0145114 C13.68785,22.0145114 13.5710737,21.8934101 13.5710737,21.6512074 L13.5710737,13.0832874 C13.5710737,12.8410847 13.68785,12.7199834 13.9214026,12.7199834 Z" id="路径" fill="#5E99FF"></path>
                    </g>
                </g>
            </g>
        </g>
    </g>
</svg>