<?xml version="1.0" encoding="UTF-8"?>
<svg width="159px" height="85px" viewBox="0 0 159 85" version="1.1" xmlns="http://www.w3.org/2000/svg" xmlns:xlink="http://www.w3.org/1999/xlink">
    <title>编组 38</title>
    <g id="首页" stroke="none" stroke-width="1" fill="none" fill-rule="evenodd">
        <g id="首页（缺省）" transform="translate(-879.000000, -363.000000)">
            <g id="编组-38" transform="translate(880.000000, 363.000000)">
                <g id="编组-44">
                    <path d="M136.565197,78 C135.899752,77.0762582 127.008583,61.7626551 127.008583,60.5568963 C127.008583,60.1451358 129.827687,47.5670203 131.075519,47.4209619 C132.32335,47.2749035 135.31932,46.2750249 136.279867,46 C136.391263,47.0185244 143.008583,78 143.008583,78 L136.565197,78 Z" id="路径备份-36" fill="#4762E0" fill-rule="nonzero"></path>
                    <path d="M117.008583,78 C117.008583,75.9750704 117.090772,46 117.090772,46 C117.090772,46 131.771286,46.4905596 133.008583,46.5430635 C133.008583,52.7832007 122.764474,73.1508265 122.764474,78 L117.008583,78 Z" id="路径备份-58" fill="#4762E0" fill-rule="nonzero"></path>
                    <path d="M126.008583,21.2618822 C125.557694,20.6338524 123.461195,17.5245768 123.275696,16.9867299 C123.090198,16.4488829 121.806402,7 121.806402,7 L118.183674,7.16249154 C118.183674,7.16249154 117.78972,17.2662153 118.183674,18.0323629 C118.577629,18.7985105 121.464791,23.7447529 121.464791,23.7447529 L123.696282,25 L126.008583,21.2618822 Z" id="路径备份-59" fill="#FFFFFF" fill-rule="nonzero"></path>
                    <path d="M117.022364,16.9427643 C117.04625,17.7147242 117.094022,18.2656857 117.177623,18.4191568 C117.571743,19.1427733 120.460122,23.8144353 120.460122,23.8144353 L122.692552,25 L125.008583,21.4701634 C124.557504,20.8769974 122.460122,17.9403268 122.274546,17.4323373 C122.088969,16.9243477 120.804633,8 120.804633,8 L117.180379,8.15347116 C117.180379,8.15347116 117.032469,11.7400921 117.008583,14.6821342" id="路径备份-60" stroke="#1B3C87" stroke-width="0.5" stroke-linecap="round" stroke-linejoin="round"></path>
                    <path d="M29.8660029,76.1005794 L31.4022231,75.9926317 C31.5595987,75.9815732 31.705612,76.0393579 31.8081417,76.1532739 C31.9106714,76.2671899 31.9613189,76.4279058 31.9489423,76.6000659 L31.6681647,80.5057056 C31.6423916,80.8642105 31.3558308,81.1735041 31.0281132,81.1965323 L29.4918929,81.3044801 L29.8660029,76.1005794 Z" id="路径备份-61" fill="#D8DFFF" fill-rule="nonzero" transform="translate(30.721334, 78.647886) rotate(40.440000) translate(-30.721334, -78.647886) "></path>
                    <path d="M128.567513,20 C137.976029,20 135.817552,42.6666494 135.746561,45.9637443 C134.276424,47.5088428 119.025102,47.1348649 117.080496,46.0871024 C116.593446,42.4816123 118.38349,20 128.567513,20 Z" id="路径备份-63" fill="#40EDD8" fill-rule="nonzero"></path>
                    <path d="M135.318037,28 C136.526363,34.6948943 135.790164,43.0702947 135.749264,44.9701657 C134.924152,45.8398741 129.715633,46.0979961 125.008583,45.9685475" id="路径备份-64" stroke="#1B3C87" stroke-width="0.5" stroke-linecap="round" stroke-linejoin="round"></path>
                    <path d="M117.008583,39 C117.970882,30.8673338 121.033663,19 128.49171,19 C131.113399,19 132.858429,20.7325694 134.008583,23.3237573" id="路径备份-65" stroke="#1B3C87" stroke-width="0.5" stroke-linecap="round" stroke-linejoin="round"></path>
                    <path d="M122.008583,46 C119.606611,45.853102 117.738053,45.6348942 117.093019,45.3681959 C117.009304,44.8961255 116.985693,44.0696458 117.031843,43" id="路径备份-66" stroke="#1B3C87" stroke-width="0.5" stroke-linecap="round" stroke-linejoin="round"></path>
                    <path d="M130.008583,56 C128.497268,59.4612772 126.903658,62.6296418 126.432158,63.7345821 C125.524013,65.8624165 122.008583,75.5599737 122.008583,77" id="路径备份-67" stroke="#1B3C87" stroke-width="0.5" stroke-linecap="round" stroke-linejoin="round"></path>
                    <path d="M134.008583,46 C134.008583,47.4498315 133.17406,49.6378014 132.008583,52" id="路径备份-68" stroke="#1B3C87" stroke-width="0.5" stroke-linecap="round" stroke-linejoin="round"></path>
                    <line x1="117.008583" y1="70" x2="117.008583" y2="77" id="路径备份-69" stroke="#1B3C87" stroke-width="0.5" stroke-linecap="round" stroke-linejoin="round"></line>
                    <line x1="117.008583" y1="45" x2="117.008583" y2="66" id="路径备份-70" stroke="#1B3C87" stroke-width="0.5" stroke-linecap="round" stroke-linejoin="round"></line>
                    <path d="M136.008583,45 C136.008583,46.8599141 142.11146,74.1549686 143.008583,77" id="路径备份-71" stroke="#1B3C87" stroke-width="0.5" stroke-linecap="round" stroke-linejoin="round"></path>
                    <path d="M132.008583,71 C129.870122,66.965602 127.528775,62.3382473 127.008583,61" id="路径备份-72" stroke="#1B3C87" stroke-width="0.5" stroke-linecap="round" stroke-linejoin="round"></path>
                    <path d="M136.008583,77 C135.682267,76.6251985 134.941215,75.4984119 134.008583,74" id="路径备份-73" stroke="#1B3C87" stroke-width="0.5" stroke-linecap="round" stroke-linejoin="round"></path>
                    <path d="M142.722995,81.0775032 C142.387896,80.7196154 141.643794,79.6289657 140.712249,78.1753704" id="路径备份-75" stroke="#1B3C87" stroke-width="0.5" stroke-linecap="round" stroke-linejoin="round" transform="translate(141.717622, 79.626437) rotate(27.000000) translate(-141.717622, -79.626437) "></path>
                    <circle id="椭圆形备份-41" fill="#FB5D64" fill-rule="nonzero" cx="14.0085832" cy="47" r="2"></circle>
                    <path d="M132.008583,17.1085898 C131.861493,18.053522 131.582235,21.4404556 131.698415,22.6169888 C131.091934,23.1237319 128.198095,23.2256364 127.008583,22.3131283 C127.242009,21.3394775 127.779208,20.4871857 127.475435,18.459287 C127.171661,16.4313883 132.008583,17.1085898 132.008583,17.1085898 Z" id="路径备份-78" fill="#FFFFFF" fill-rule="nonzero"></path>
                    <path d="M127.008583,20.4749988 C127.243204,19.7542566 127.465476,18.9065969 127.2331,17.459554 C126.914286,15.4307294 132.008583,16.108857 132.008583,16.108857 C131.853666,17.0537891 131.559549,20.4407219 131.681911,21.6172549 C131.185727,22.0109766 129.233549,22.1601276 127.800007,21.7784492" id="路径备份-79" stroke="#1B3C87" stroke-width="0.5" stroke-linecap="round" stroke-linejoin="round"></path>
                    <rect id="矩形备份" fill="#F1F5FF" x="48.0085832" y="25" width="63" height="28" rx="1"></rect>
                    <ellipse id="椭圆形备份-43" fill="#FFFFFF" fill-rule="nonzero" cx="128.508583" cy="13" rx="4.5" ry="5"></ellipse>
                    <path d="M124.113487,15.0192982 C124.043189,14.6082585 124.008101,14.1921926 124.008583,13.7754386 C124.008583,10.5859649 126.023183,8 128.508478,8 C130.993773,8 133.008368,10.5859649 133.008368,13.7754386 C133.017185,14.8943894 132.754788,15.99945 132.242696,17" id="路径备份-80" stroke="#1B3C87" stroke-width="0.5" stroke-linecap="round" stroke-linejoin="round"></path>
                    <path d="M131.008583,17.7684343 C130.48459,17.9203649 129.913858,17.9993811 129.33599,18 C127.500364,18 125.892179,17.1986194 125.008583,16" id="路径备份-81" stroke="#1B3C87" stroke-width="0.5" stroke-linecap="round" stroke-linejoin="round"></path>
                    <circle id="椭圆形备份-44" fill="#1B3C87" fill-rule="nonzero" cx="126.508583" cy="13.5" r="1"></circle>
                    <path d="M131.003828,14.845491 C131.199516,15.0928483 131.397008,16.8798781 131.815437,16.9968259 C132.233866,17.1137737 134.008583,13.9679618 134.008583,12.7059351 C134.008583,10.4241908 132.565724,5.31214127 130.44472,5.31214127 C129.675496,5.31214127 129.606058,6.42104207 129.606058,6.85097251 C129.35446,6.26202671 128.193859,5 126.726652,5 C124.238621,5 124.2783,7.18751296 124.713863,8.9122828 C124.281005,8.6901661 124.262969,8.62538206 123.735424,8.62538206 C123.261084,8.62538206 123.008583,9.20507299 123.008583,9.81168716 C123.008583,11.2722727 123.849951,11.7939104 124.50555,12.042109 C125.161149,12.2903076 127.047688,12.4072554 128.293056,12.3786495 C128.445458,12.7101418 129.59163,14.8715729 131.003828,14.845491 Z" id="路径备份-83" fill="#FFAF4B" fill-rule="nonzero"></path>
                    <path d="M125.008583,12 C125.931111,12.1020275 126.859794,12.1452998 127.788407,12.1295268 C127.947201,12.4728617 129.134417,14.7555503 130.597187,14.7280481 C130.799883,14.9888761 131.004447,16.8732254 131.43786,16.996542 C131.550884,17.0293673 131.761052,16.8262053 132.008583,16.4846449" id="路径备份-84" stroke="#1B3C87" stroke-width="0.5" stroke-linecap="round" stroke-linejoin="round"></path>
                    <path d="M125.008583,5 C124.264051,5.73519401 124.372538,7.10265487 124.663001,8.2552757 C124.243054,8.03961879 124.225556,7.97671886 123.713745,7.97671886 C123.253553,7.97671886 123.008583,8.53955071 123.008583,9.1285228 C123.008583,10.133288 123.418907,10.680599 123.883474,11" id="路径备份-85" stroke="#1B3C87" stroke-width="0.5" stroke-linecap="round" stroke-linejoin="round"></path>
                    <path d="M132.008583,5.95 C131.502589,5.56545455 130.950932,5.33727273 130.359782,5.33727273 C129.307067,5.33727273 129.212039,6.53454545 129.212039,7 C128.867716,6.36363636 127.279387,5 125.271453,5 C125.181362,5 125.093738,5 125.008583,5" id="路径备份-86" stroke="#1B3C87" stroke-width="0.5" stroke-linecap="round" stroke-linejoin="round"></path>
                    <path d="M133.122507,14 C133.628836,13.291662 134.008583,12.5638428 134.008583,12.1040855 C134.008583,10.819882 133.263014,8.56940888 132.008583,7" id="路径备份-87" stroke="#1B3C87" stroke-width="0.5" stroke-linecap="round" stroke-linejoin="round"></path>
                    <circle id="椭圆形备份-45" fill="#FFFFFF" fill-rule="nonzero" cx="129.008583" cy="14" r="1"></circle>
                    <path d="M129.008583,12.1344762 C129.493796,11.9237672 130.102854,11.9634906 130.532354,12.2338581 C130.961854,12.5042256 131.119936,12.9474121 130.927853,13.3426444 C130.735769,13.7378767 130.234602,14.000624 129.674007,14" id="路径备份-88" stroke="#1B3C87" stroke-width="0.5" stroke-linecap="round" stroke-linejoin="round" transform="translate(130.008583, 13.000000) rotate(-35.000000) translate(-130.008583, -13.000000) "></path>
                    <path d="M125.94618,23.698049 C124.958058,23.3099609 117.849872,21.0815592 117.232745,20.5467739 C116.615618,20.0119885 112.001989,12.3495777 111.853771,11.9863273 C111.98582,11.8605868 112.22746,11.2644835 112.213088,10.5892103 C112.198715,9.91393702 111.69657,9.72843092 111.657943,7.61878419 C111.645367,6.89616421 110.4183,7.65836917 110.433571,9.15638911 C108.978337,9.06014327 107.131448,5.99191901 106.008583,7.34324166 C109.87124,14.0820029 114.130043,24.460254 114.488462,24.7699482 C114.846881,25.0796425 124.081325,29.1079967 124.287932,28.9977796 C124.494539,28.8875626 126.371072,24.138917 125.94618,23.698049 Z" id="路径备份-89" fill="#FFFFFF" fill-rule="nonzero"></path>
                    <path d="M134.930894,30.727026 C135.640482,27.9341144 131.375938,23.4400577 126.765811,23 C126.006228,23.4127195 123.766071,28.5620124 124.030083,30.208481 C125.766775,32.07101 133.80643,35.1549417 134.930894,30.727026 Z" id="路径备份-90" fill="#46DBC9" fill-rule="nonzero"></path>
                    <path d="M125.008583,24 C124.255613,25.0579694 122.834686,28.7531625 123.026144,30.0305797 C123.28904,30.3331867 123.730535,30.6727533 124.279903,31" id="路径备份-91" stroke="#1B3C87" stroke-width="0.5" stroke-linecap="round" stroke-linejoin="round"></path>
                    <path d="M127.008583,22 C126.614608,22.2657819 126.275113,22.6052775 126.008583,23" id="路径备份-92" stroke="#1B3C87" stroke-width="0.5" stroke-linecap="round" stroke-linejoin="round"></path>
                    <path d="M126.900475,32.0544454 C129.773788,32.5896096 132.807813,32.3296153 133.592138,29.952778 C134.300902,27.8075859 131.608156,24.7672133 127.933574,23.457907" id="路径备份-93" stroke="#1B3C87" stroke-width="0.5" stroke-linecap="round" stroke-linejoin="round" transform="translate(130.303138, 27.872989) rotate(16.000000) translate(-130.303138, -27.872989) "></path>
                    <path d="M117.008583,27 C116.089477,26.5979501 115.387696,26.2781868 115.154071,26.1475386 C114.347249,25.6913527 111.956666,18.2371878 108.008583,12" id="路径备份-95" stroke="#1B3C87" stroke-width="0.5" stroke-linecap="round" stroke-linejoin="round"></path>
                    <path d="M124.008583,29 C123.682909,28.9194396 120.774641,27.9492119 118.008583,27" id="路径备份-96" stroke="#1B3C87" stroke-width="0.5" stroke-linecap="round" stroke-linejoin="round"></path>
                    <path d="M113.008583,16 C112.476279,14.7696274 112.077214,13.819563 112.041291,13.6970754 C112.137302,13.5698767 112.312995,12.9668606 112.302545,12.2837565 C112.292095,11.6006524 111.926993,11.412995 111.898908,9.27888348 C111.889764,8.54788354 110.997583,9.31892752 111.008686,10.8343194" id="路径备份-97" stroke="#1B3C87" stroke-width="0.5" stroke-linecap="round" stroke-linejoin="round"></path>
                    <path d="M125.008583,24 C124.01319,23.5778046 116.852693,21.1535585 116.231025,20.5717732 C115.974032,20.3319662 115.034743,18.7749095 114.008583,17" id="路径备份-98" stroke="#1B3C87" stroke-width="0.5" stroke-linecap="round" stroke-linejoin="round"></path>
                    <polygon id="矩形备份-12" fill="#FFFFFF" transform="translate(120.274765, 80.114943) rotate(-3.000000) translate(-120.274765, -80.114943) " points="118.00261 78.144247 122.515235 78.1759316 122.54692 82.0856381 118.034295 82.0539535"></polygon>
                    <rect id="矩形备份-13" fill="#FFFFFF" x="136.008583" y="78" width="5" height="4"></rect>
                    <path d="M116.862577,81.0735446 C118.303394,81.5376788 119.411302,81.77667 120.186303,81.7905182 C120.902806,81.8033211 121.903856,81.6338558 123.189452,81.2821223 L123.189449,81.2821103 C123.530388,81.188831 123.882392,81.3895987 123.975671,81.7305376 C123.980434,81.7479456 123.984458,81.7655472 123.987733,81.7832953 C124.001633,81.8586233 124.008583,81.9309036 124.008583,82.0001361 C124.008583,82.2087593 123.945474,82.4742662 123.819254,82.7966566 C123.771242,82.9193021 123.652986,83 123.521277,83 L114.085789,83 C113.86585,82.835936 113.649597,82.892429 113.45776,83 C113.158309,82.7247813 113.008583,82.5106585 113.008583,82.3576314 C113.008583,82.2046043 113.158309,82.0155665 113.45776,81.7905182 C113.948197,81.4368646 114.371775,81.215718 114.728494,81.1270785 C115.051883,81.0467211 115.605218,81.0044739 116.388497,81.0003368 L116.388497,81.0003529 C116.549402,80.9995031 116.709421,81.0242079 116.862577,81.0735446 Z" id="路径-8备份-8" fill="#154AD8"></path>
                    <path d="M135.862577,81.0735446 C137.303394,81.5376788 138.411302,81.77667 139.186303,81.7905182 C139.902806,81.8033211 140.903856,81.6338558 142.189452,81.2821223 L142.189449,81.2821103 C142.530388,81.188831 142.882392,81.3895987 142.975671,81.7305376 C142.980434,81.7479456 142.984458,81.7655472 142.987733,81.7832953 C143.001633,81.8586233 143.008583,81.9309036 143.008583,82.0001361 C143.008583,82.2087593 142.945474,82.4742662 142.819254,82.7966566 C142.771242,82.9193021 142.652986,83 142.521277,83 L133.085789,83 C132.86585,82.835936 132.649597,82.892429 132.45776,83 C132.158309,82.7247813 132.008583,82.5106585 132.008583,82.3576314 C132.008583,82.2046043 132.158309,82.0155665 132.45776,81.7905182 C132.948197,81.4368646 133.371775,81.215718 133.728494,81.1270785 C134.051883,81.0467211 134.605218,81.0044739 135.388497,81.0003368 L135.388497,81.0003529 C135.549402,80.9995031 135.709421,81.0242079 135.862577,81.0735446 Z" id="路径-8备份-9" fill="#154AD8"></path>
                    <path d="M123.925153,81.5480828 C123.980773,81.7109627 124.008583,81.8616471 124.008583,82.0001361 C124.008583,82.2087593 123.945474,82.4742662 123.819254,82.7966566 C123.771242,82.9193021 123.652986,83 123.521277,83 L113.650913,83 C113.296164,82.9999607 113.008583,82.7123801 113.008583,82.3576314 C113.008583,82.3576314 113.008583,82.3576314 113.008583,82.3576314 C113.008583,82.2046043 113.158309,81.9734255 113.45776,81.6640952 C113.869156,81.3100045 114.253214,81.0886395 114.609933,81" id="路径-8备份-10" stroke="#1B3C87" stroke-width="0.5"></path>
                    <path d="M142.925153,81.5480828 C142.980773,81.7109627 143.008583,81.8616471 143.008583,82.0001361 C143.008583,82.2087593 142.945474,82.4742662 142.819254,82.7966566 C142.771242,82.9193021 142.652986,83 142.521277,83 L132.650913,83 C132.296164,82.9999607 132.008583,82.7123801 132.008583,82.3576314 C132.008583,82.3576314 132.008583,82.3576314 132.008583,82.3576314 C132.008583,82.2046043 132.158309,81.9734255 132.45776,81.6640952 C132.869156,81.3100045 133.253214,81.0886395 133.609933,81" id="路径-8备份-11" stroke="#1B3C87" stroke-width="0.5"></path>
                    <rect id="矩形备份-14" fill="#F9F9F9" x="110.008583" y="23" width="2" height="5"></rect>
                    <polygon id="路径备份-62" fill="#4762E0" fill-rule="nonzero" transform="translate(15.824409, 67.665064) rotate(45.000000) translate(-15.824409, -67.665064) " points="3.94813434 67.5682647 1.76198806e-12 70.9393083 4.00985395 72.8469169 4.00985395 72.8469169 31.6488171 67.7618636 31.5870975 62.4832114"></polygon>
                    <ellipse id="椭圆形备份-42" fill="#FFFFFF" fill-rule="nonzero" cx="93.5085832" cy="71" rx="2.5" ry="2"></ellipse>
                    <polygon id="路径备份-99" stroke="#40EDD8" stroke-width="0.5" stroke-linecap="round" stroke-linejoin="round" points="65.0085832 55 40.0085832 60.428844 58.074682 76"></polygon>
                    <circle id="椭圆形备份-47" fill="#B2C3FB" fill-rule="nonzero" transform="translate(99.508583, 36.500000) scale(-1, 1) translate(-99.508583, -36.500000) " cx="99.5085832" cy="36.5" r="1.5"></circle>
                    <circle id="椭圆形备份-48" fill="#B2C3FB" fill-rule="nonzero" transform="translate(91.508583, 36.500000) scale(-1, 1) translate(-91.508583, -36.500000) " cx="91.5085832" cy="36.5" r="1.5"></circle>
                    <line x1="76.0085832" y1="44" x2="91.0085832" y2="44" id="路径备份-104" stroke="#F1F5FF" stroke-width="0.5" stroke-linecap="round" stroke-linejoin="round" transform="translate(83.508583, 44.000000) scale(-1, 1) translate(-83.508583, -44.000000) "></line>
                    <path d="M98.0085832,7 L123.008583,7 C123.560868,7 124.008583,7.44771525 124.008583,8 L124.008583,10 C124.008583,10.5522847 123.560868,11 123.008583,11 L98.0085832,11 C96.9040137,11 96.0085832,10.1045695 96.0085832,9 C96.0085832,7.8954305 96.9040137,7 98.0085832,7 Z" id="矩形" fill="#B2C3FB"></path>
                    <line x1="76.0085832" y1="49.5" x2="91.0085832" y2="49.5" id="路径备份-107" stroke="#F1F5FF" stroke-width="0.5" stroke-linecap="round" stroke-linejoin="round" transform="translate(83.508583, 49.500000) scale(-1, 1) translate(-83.508583, -49.500000) "></line>
                    <line x1="76.0085832" y1="57.5" x2="91.0085832" y2="57.5" id="路径备份-108" stroke="#F1F5FF" stroke-width="0.5" stroke-linecap="round" stroke-linejoin="round" transform="translate(83.508583, 57.500000) scale(-1, 1) translate(-83.508583, -57.500000) "></line>
                    <ellipse id="椭圆形" fill="#D8DFFF" cx="88.5085832" cy="9.5" rx="10.5" ry="9.5"></ellipse>
                    <ellipse id="椭圆形备份" fill="#F1F5FF" cx="88.5085832" cy="9.5" rx="9.5" ry="8.5"></ellipse>
                    <path d="M107.635084,10.5565415 C107.443524,10.180709 107.247482,9.81086106 107.04696,9.44699771 C106.769702,9.02239072 108.019045,8.20639125 110.008583,11" id="路径备份-94" stroke="#1B3C87" stroke-width="0.5" stroke-linecap="round" stroke-linejoin="round"></path>
                    <polygon id="矩形备份-15" stroke="#4762E0" stroke-width="0.5" stroke-linecap="round" stroke-linejoin="round" transform="translate(7.508583, 41.500000) scale(-1, 1) translate(-7.508583, -41.500000) " points="0.00858317609 43.093176 1.64774508 37 15.0085832 39.906824 13.3694213 46"></polygon>
                    <line x1="5.57154614" y1="84" x2="156.44562" y2="84" id="路径-15" stroke="#1B3C87" stroke-width="0.5" stroke-linecap="round"></line>
                    <path d="M29.0085832,14 L29.0085832,12.9 C29.0085832,12.4029437 29.4115269,12 29.9085832,12 L34.7611413,12 L34.7611413,12 L40.5136995,12 L43.2085832,12 C43.650411,12 44.0085832,12.3581722 44.0085832,12.8 L44.0085832,14 L44.0085832,14" id="路径-12备份-2" stroke="#1B3C87" stroke-width="0.5" fill="#FFFFFF"></path>
                    <rect id="矩形" fill="#E3EAFF" x="19.0085832" y="15" width="35" height="35" rx="1"></rect>
                    <circle id="椭圆形备份-36" fill="#4862E0" cx="24.5085832" cy="20.5" r="1.5"></circle>
                    <circle id="椭圆形备份-37" fill="#4862E0" cx="24.5085832" cy="26.5" r="1.5"></circle>
                    <circle id="椭圆形备份-38" fill="#4862E0" cx="24.5085832" cy="32.5" r="1.5"></circle>
                    <circle id="椭圆形备份-39" fill="#4862E0" cx="24.5085832" cy="38.5" r="1.5"></circle>
                    <path d="M19.0085832,46 L19.0085832,17 C19.0085832,15.3431458 20.3517289,14 22.0085832,14 L23.0600031,14 L23.0600031,14 L27.6791555,14 L51.0085832,14 C52.6654374,14 54.0085832,15.3431458 54.0085832,17 L54.0085832,26.7495131 L54.0085832,26.7495131" id="路径-11备份-6" stroke="#1B3C87" stroke-width="0.5"></path>
                    <line x1="29.0085832" y1="20" x2="50.0085832" y2="20" id="路径备份-100" stroke="#1B3C87" stroke-width="0.5" stroke-linecap="round" stroke-linejoin="round"></line>
                    <line x1="29.0085832" y1="26" x2="50.0085832" y2="26" id="路径备份-101" stroke="#1B3C87" stroke-width="0.5" stroke-linecap="round" stroke-linejoin="round"></line>
                    <line x1="29.0085832" y1="32" x2="40.0085832" y2="32" id="路径备份-102" stroke="#1B3C87" stroke-width="0.5" stroke-linecap="round" stroke-linejoin="round"></line>
                    <line x1="29.0085832" y1="39" x2="39.0085832" y2="39" id="路径备份-103" stroke="#1B3C87" stroke-width="0.5" stroke-linecap="round" stroke-linejoin="round"></line>
                    <rect id="矩形备份-16" fill="#DDE4FF" fill-rule="nonzero" opacity="0.7757859" transform="translate(90.508583, 54.000000) scale(-1, 1) translate(-90.508583, -54.000000) " x="70.0085832" y="34" width="41" height="40"></rect>
                    <rect id="矩形备份-17" fill="#C4D1FF" fill-rule="nonzero" transform="translate(90.508583, 37.000000) scale(-1, 1) translate(-90.508583, -37.000000) " x="70.0085832" y="34" width="41" height="6"></rect>
                    <circle id="椭圆形备份-46" fill="#B2C3FB" fill-rule="nonzero" transform="translate(108.508583, 36.500000) scale(-1, 1) translate(-108.508583, -36.500000) " cx="108.508583" cy="36.5" r="1.5"></circle>
                    <rect id="矩形备份-18" fill="#F1F5FF" fill-rule="nonzero" transform="translate(42.008583, 55.500000) scale(-1, 1) translate(-42.008583, -55.500000) " x="36.0085832" y="50" width="12" height="11"></rect>
                    <line x1="75.0085832" y1="62" x2="105.008583" y2="62" id="路径备份-105" stroke="#C4D1FF" stroke-width="0.5" stroke-linecap="round" stroke-linejoin="round" transform="translate(90.008583, 62.000000) scale(-1, 1) translate(-90.008583, -62.000000) "></line>
                    <line x1="75.0085832" y1="46" x2="105.008583" y2="46" id="路径备份-116" stroke="#C4D1FF" stroke-width="0.5" stroke-linecap="round" stroke-linejoin="round" transform="translate(90.008583, 46.000000) scale(-1, 1) translate(-90.008583, -46.000000) "></line>
                    <line x1="75.0085832" y1="55" x2="105.008583" y2="55" id="路径备份-117" stroke="#C4D1FF" stroke-width="0.5" stroke-linecap="round" stroke-linejoin="round" transform="translate(90.008583, 55.000000) scale(-1, 1) translate(-90.008583, -55.000000) "></line>
                    <line x1="75.0085832" y1="68.5" x2="105.008583" y2="68.5" id="路径备份-106" stroke="#C4D1FF" stroke-width="0.5" stroke-linecap="round" stroke-linejoin="round" transform="translate(90.008583, 68.500000) scale(-1, 1) translate(-90.008583, -68.500000) "></line>
                    <path d="M19.0977563,42.1937898 C18.5938802,47.778821 20.2253827,51.6634147 23.9922637,53.8475711 C27.7591448,56.0317274 31.0305019,55.7091195 33.8063353,52.8797473 C35.8026672,50.740492 35.8026672,49.1395674 33.8063353,48.0769737 C31.8100034,47.01438 30.3210838,47.8728 29.3395765,50.6522339 C28.6305773,54.5927182 33.7895072,57.3125643 44.8163661,58.8117724 C61.3566546,61.0605846 62.9905619,42.5305367 68.5085832,36.7399902 C74.0266045,30.9494438 96.7949029,12.3575759 110.255297,23.4787331 C119.228894,30.8928379 120.413009,39.9506715 113.807643,50.6522339" id="路径-13备份-2" stroke="#1B3C87" stroke-width="0.5"></path>
                    <path d="M138.208709,81.0775032 C137.87361,80.7196154 137.129508,79.6289657 136.197963,78.1753704" id="路径备份-74" stroke="#1B3C87" stroke-width="0.5" stroke-linecap="round" stroke-linejoin="round" transform="translate(137.203336, 79.626437) rotate(27.000000) translate(-137.203336, -79.626437) "></path>
                    <path d="M119.022995,81.0775032 C118.687896,80.7196154 117.943794,79.6289657 117.012249,78.1753704" id="路径备份-76" stroke="#1B3C87" stroke-width="0.5" stroke-linecap="round" stroke-linejoin="round" transform="translate(118.017622, 79.626437) rotate(27.000000) translate(-118.017622, -79.626437) "></path>
                    <path d="M123.537281,81.0775032 C123.202181,80.7196154 122.458079,79.6289657 121.526535,78.1753704" id="路径备份-77" stroke="#1B3C87" stroke-width="0.5" stroke-linecap="round" stroke-linejoin="round" transform="translate(122.531908, 79.626437) rotate(27.000000) translate(-122.531908, -79.626437) "></path>
                    <circle id="椭圆形" fill="#FF7048" cx="103.508583" cy="36.5" r="1"></circle>
                    <circle id="椭圆形备份-53" fill="#FF7048" cx="105.508583" cy="36.5" r="1"></circle>
                </g>
                <g id="编组-46" transform="translate(57.000000, 58.000000)">
                    <path d="M13.2979205,12.5666775 L3.14042865,12.5122707 L3.19797327,23.3833997 L19.4418987,23.4704074 L19.3735355,10.5554731 L16.2311002,10.5386314 C15.2652704,10.5334679 15.0202913,12.5759031 13.2963702,12.5666692" id="路径" fill="#FFFFFF" fill-rule="nonzero" transform="translate(11.291164, 17.004519) rotate(21.000000) translate(-11.291164, -17.004519) "></path>
                    <polyline id="路径" stroke="#1B3C87" stroke-width="0.4" stroke-linecap="round" stroke-linejoin="round" transform="translate(13.406324, 20.908918) rotate(20.000000) translate(-13.406324, -20.908918) " points="18.716177 18.7943116 18.6767398 23.0235246 8.09647143 22.9151272"></polyline>
                    <polyline id="路径备份-2" stroke="#1B3C87" stroke-width="0.5" stroke-linecap="round" stroke-linejoin="round" transform="translate(48.309853, 8.500000) rotate(-1.000000) translate(-48.309853, -8.500000) " points="53.6197056 1 53.5802684 16 43 15.6155406"></polyline>
                    <polyline id="路径" stroke="#1B3C87" stroke-width="0.4" stroke-linecap="round" stroke-linejoin="round" transform="translate(9.780756, 16.781280) rotate(20.000000) translate(-9.780756, -16.781280) " points="3.93375963 22.0696283 2.35217132 22.0458607 2.44020991 11.4929315 17.20934 11.6639227"></polyline>
                    <line x1="3.95192884" y1="14.2846857" x2="15.3014753" y2="16.1521059" id="路径" stroke-opacity="0.6" stroke="#154AD8" stroke-width="0.5" stroke-linecap="round" stroke-linejoin="round" transform="translate(9.626702, 15.218396) rotate(11.000000) translate(-9.626702, -15.218396) "></line>
                    <line x1="2.91596929" y1="17.8530057" x2="14.2655158" y2="19.7204259" id="路径备份" stroke-opacity="0.6" stroke="#154AD8" stroke-width="0.5" stroke-linecap="round" stroke-linejoin="round" transform="translate(8.590743, 18.786716) rotate(11.000000) translate(-8.590743, -18.786716) "></line>
                </g>
                <g id="编组-45" transform="translate(76.500000, 72.000000) rotate(11.000000) translate(-76.500000, -72.000000) translate(74.000000, 70.000000)" stroke="#1B3C87" stroke-linecap="round" stroke-linejoin="round" stroke-width="0.4">
                    <path d="M0.244651289,2.76310986 C1.19522707,2.77767665 1.47544589,0.612080147 2.05086128,0.603876448 C2.47169368,0.596745533 4.47964344,0.524056424 4.58865021,0.689499142 C4.69765699,0.85494186 4.60719007,2.83482508 4.60719007,2.83482508" id="路径" transform="translate(2.443536, 1.708352) rotate(9.000000) translate(-2.443536, -1.708352) "></path>
                </g>
                <circle id="椭圆形备份-54" fill="#FF7048" fill-rule="nonzero" cx="74" cy="76" r="1"></circle>
                <g id="编组-2备份" transform="translate(103.500000, 58.500000) rotate(28.000000) translate(-103.500000, -58.500000) translate(100.000000, 55.000000)" fill-rule="nonzero">
                    <path d="M0.66675,3.20325 C0.66675,4.11749266 1.15449262,4.96228772 1.94624998,5.41940905 C2.73800735,5.87653039 3.71349265,5.87653039 4.50525002,5.41940905 C5.29700738,4.96228772 5.78475,4.11749266 5.78475,3.20325 C5.78475,1.78995333 4.63904667,0.64425 3.22575,0.64425 C1.81245333,0.64425 0.66675,1.78995333 0.66675,3.20325 Z" id="路径" fill="#FEA940"></path>
                    <path d="M3.20325,6.4065 C2.77125,6.4065 2.35125,6.32175 1.95675,6.1545 C1.575,5.99325 1.23225,5.76225 0.93825,5.46825 C0.64425,5.17425 0.41325,4.8315 0.252,4.4505 C0.08475,4.05525 2.48689958e-14,3.63525 2.48689958e-14,3.20325 C2.48689958e-14,2.77125 0.08475,2.35125 0.252,1.95675 C0.41325,1.575 0.64425,1.23225 0.93825,0.93825 C1.23225,0.64425 1.575,0.41325 1.956,0.252 C2.35125,0.08475 2.77125,-1.33892897e-12 3.20325,-1.33892897e-12 C3.65925,-1.33892897e-12 4.0995,0.09375 4.512,0.279 C4.569,0.3045 4.59375,0.37125 4.569,0.4275 C4.5435,0.4845 4.47675,0.50925 4.4205,0.4845 C4.03725,0.31275 3.62775,0.22575 3.204,0.22575 C2.802,0.22575 2.412,0.3045 2.04525,0.45975 C1.6905,0.60975 1.3725,0.82425 1.09875,1.098 C0.825,1.37175 0.6105,1.68975 0.4605,2.0445 C0.30525,2.41125 0.2265,2.80125 0.2265,3.20325 C0.2265,3.60525 0.30525,3.99525 0.4605,4.362 C0.6105,4.71675 0.825,5.03475 1.09875,5.3085 C1.3725,5.58225 1.6905,5.79675 2.04525,5.94675 C2.412,6.102 2.802,6.18075 3.204,6.18075 C3.606,6.18075 3.996,6.102 4.36275,5.94675 C4.7175,5.79675 5.0355,5.58225 5.30925,5.3085 C5.583,5.03475 5.7975,4.71675 5.9475,4.362 C6.10275,3.99525 6.1815,3.60525 6.1815,3.20325 C6.1815,2.77425 6.09225,2.3595 5.916,1.9725 C5.74575,1.59825 5.5035,1.2675 5.19675,0.99075 C5.15025,0.9495 5.14725,0.87825 5.1885,0.83175 C5.22975,0.78525 5.301,0.78225 5.3475,0.8235 C5.6775,1.12125 5.93775,1.476 6.12075,1.87875 C6.3105,2.29575 6.4065,2.74125 6.4065,3.20325 C6.4065,3.63525 6.32175,4.05525 6.1545,4.44975 C5.99325,4.8315 5.76225,5.17425 5.46825,5.46825 C5.17425,5.76225 4.8315,5.99325 4.4505,6.1545 C4.05525,6.32175 3.63525,6.4065 3.20325,6.4065 Z" id="路径" fill="#1B3C87"></path>
                    <path d="M1.23325,4.484 C1.10425,4.484 1,4.37975 1,4.25075 L1,3.34475 C1,3.21575 1.10425,3.1115 1.23325,3.1115 C1.36225,3.1115 1.4665,3.21575 1.4665,3.34475 L1.4665,4.25075 C1.46575,4.379 1.3615,4.484 1.23325,4.484 Z M2.38,4.484 C2.251,4.484 2.14675,4.37975 2.14675,4.25075 L2.14675,2.88725 C2.14675,2.75825 2.251,2.654 2.38,2.654 C2.509,2.654 2.61325,2.75825 2.61325,2.88725 L2.61325,4.25075 C2.6125,4.379 2.50825,4.484 2.38,4.484 Z M3.526,4.484 C3.397,4.484 3.29275,4.37975 3.29275,4.25075 L3.29275,2.23325 C3.29275,2.10425 3.397,2 3.526,2 C3.655,2 3.75925,2.10425 3.75925,2.23325 L3.75925,4.25075 C3.75925,4.379 3.655,4.484 3.526,4.484 Z M4.67275,4.484 C4.54375,4.484 4.4395,4.37975 4.4395,4.25075 L4.4395,2.88725 C4.4395,2.75825 4.54375,2.654 4.67275,2.654 C4.80175,2.654 4.906,2.75825 4.906,2.88725 L4.906,4.25075 C4.906,4.379 4.80175,4.484 4.67275,4.484 Z" id="形状" fill="#FFFFFF"></path>
                </g>
            </g>
        </g>
    </g>
</svg>