<?xml version="1.0" encoding="UTF-8"?>
<svg width="48px" height="48px" viewBox="0 0 48 48" version="1.1" xmlns="http://www.w3.org/2000/svg" xmlns:xlink="http://www.w3.org/1999/xlink">
    <title>编组 34</title>
    <defs>
        <path d="M4,0 L44,0 C46.209,0 48,1.791 48,4 L48,44 C48,46.209 46.209,48 44,48 L4,48 C1.791,48 0,46.209 0,44 L0,4 C0,1.791 1.791,0 4,0" id="path-1"></path>
        <filter id="filter-3">
            <feColorMatrix in="SourceGraphic" type="matrix" values="0 0 0 0 0.062745 0 0 0 0 0.713725 0 0 0 0 1.000000 0 0 0 1.000000 0"></feColorMatrix>
        </filter>
    </defs>
    <g id="首页" stroke="none" stroke-width="1" fill="none" fill-rule="evenodd">
        <g id="首页2（两个可视化图表）" transform="translate(-670.000000, -689.000000)">
            <g id="编组-34" transform="translate(670.000000, 689.000000)">
                <g id="椭圆形">
                    <mask id="mask-2" fill="white">
                        <use xlink:href="#path-1"></use>
                    </mask>
                    <use id="蒙版" fill="#EEF8FF" xlink:href="#path-1"></use>
                    <circle fill="#4ECE93" mask="url(#mask-2)" cx="46.9714286" cy="1.02857143" r="7.2"></circle>
                </g>
                <g id="图标/系统图标/集团管理" transform="translate(12.342857, 11.657143)" filter="url(#filter-3)">
                    <g>
                        <g id="编组-87" transform="translate(0.000000, 1.500000)">
                            <path d="M3,2.99664259 C3.30285661,2.6239702 3.60571323,2.27647838 3.9069058,1.95584583 C4.13987242,1.67046607 4.38615143,1.40019465 4.64907091,1.14335287 C4.90866229,0.889868501 5.10668392,0.701853602 5.23980771,0.58434429 C5.42618101,0.433260889 5.62420264,0.297285828 5.83220856,0.179776516 C6.09346399,0.048837569 6.38467228,-0.0115957914 6.67588056,0.00183384427 L17.5487658,0.00183384427 C17.8066932,0.00854866209 18.0612924,0.0572310913 18.3042433,0.142845018 C18.6254045,0.258675626 18.9116206,0.455084047 19.136267,0.713604533 C19.2710548,0.883153683 19.4474438,1.09634915 19.665434,1.34983352 L20.2944439,2.08510607 C20.5290746,2.37216453 20.7653693,2.67768874 21,3 L3,2.99664259 Z" id="Fill-43备份" fill="#5E99FF"></path>
                            <path d="M13.0171742,8.80653193 L10.9992883,8.80653193 C10.8711895,8.81403193 10.7457319,8.76453193 10.6493277,8.67003193 C10.5529235,8.55303193 10.5000992,8.40003193 10.5000992,8.23953193 C10.497458,8.09403193 10.547641,7.95453193 10.6400834,7.85253193 C10.7351671,7.74453193 10.8659071,7.68753193 10.9992883,7.69353193 L13.0171742,7.69353193 C13.1426318,7.68603193 13.2654482,7.73103193 13.3658142,7.81803193 C13.4622185,7.92903193 13.5110809,8.08203193 13.4978748,8.23803193 C13.4833482,8.61753193 13.3235548,8.80653193 13.0171742,8.80653193 M23.5145326,6.59210466 C23.073525,6.15904344 22.4445181,5.94417845 21.8137542,6.01246887 L2.25480175,6.01246887 C1.61700982,5.95417217 0.984488904,6.16737154 0.52766824,6.59210466 C0.17626773,6.97519729 -0.0117315434,7.46988645 0.000567474472,7.97790058 L0.000567474472,11.5806368 C-0.00997454084,12.0936478 0.207893776,12.5866714 0.599705345,12.9414485 C1.03544198,13.3245411 1.61525282,13.5244155 2.20736268,13.4961 L21.8471372,13.4961 C22.4374901,13.531078 23.0155439,13.3295379 23.4407385,12.9414485 C23.8114661,12.5766777 24.0117644,12.0869854 23.9994653,11.5806368 L23.9994653,7.97790058 C24.0100074,7.47654893 23.8395781,6.98685663 23.5145326,6.59210466" id="Fill-45备份" fill="#154AD8"></path>
                            <path d="M13.3672537,17.636139 C13.2761145,17.744139 13.1479912,17.802639 13.0172262,17.795139 L10.9989543,17.795139 C10.8655476,17.801139 10.7347826,17.744139 10.6396808,17.636139 C10.4534397,17.421639 10.4534397,17.078139 10.6396808,16.863639 C10.7347826,16.757139 10.8655476,16.700139 10.9989543,16.704639 L13.0211888,16.704639 C13.1519538,16.698639 13.2800771,16.757139 13.3712163,16.863639 C13.5429279,17.084139 13.5429279,17.417139 13.3712163,17.636139 L13.3672537,17.636139 Z M21.8032604,15.0082604 L2.28878278,15.0082604 C1.64925186,14.9549357 1.01674876,15.1615689 0.547642292,15.5765018 C0.183953009,15.9597732 -0.0128257341,16.4596924 0.00298684341,16.9746091 L0.00298684341,20.3523962 C-0.0303952647,20.9473 0.217335117,21.5255398 0.681170725,21.9271415 C1.0975686,22.2920825 1.64222405,22.4953829 2.20971989,22.4953829 L21.6873015,22.4953829 C22.2969642,22.5337101 22.8960852,22.332076 23.3476222,21.9404727 C23.765777,21.5888629 24.0029657,21.0839445 23.9994518,20.5540302 L23.9994518,16.9496131 C24.0117504,16.4430284 23.8167286,15.9514412 23.4547963,15.5765018 C23.015558,15.1715673 22.4146801,14.9649341 21.8032604,15.0082604 L21.8032604,15.0082604 Z" id="Fill-47备份" fill="#154AD8"></path>
                        </g>
                        <rect id="矩形" x="0" y="0" width="24" height="24"></rect>
                    </g>
                </g>
            </g>
        </g>
    </g>
</svg>