<?xml version="1.0" encoding="UTF-8"?>
<svg width="16px" height="16px" viewBox="0 0 16 16" version="1.1" xmlns="http://www.w3.org/2000/svg" xmlns:xlink="http://www.w3.org/1999/xlink">
    <title>公司</title>
    <defs>
        <filter id="filter-1">
            <feColorMatrix in="SourceGraphic" type="matrix" values="0 0 0 0 0.082353 0 0 0 0 0.290196 0 0 0 0 0.847059 0 0 0 1.000000 0"></feColorMatrix>
        </filter>
    </defs>
    <g id="首页" stroke="none" stroke-width="1" fill="none" fill-rule="evenodd">
        <g id="公司" transform="translate(-1086.000000, -150.000000)" filter="url(#filter-1)">
            <g transform="translate(1086.000000, 150.000000)">
                <rect id="矩形" fill="#000000" fill-rule="nonzero" opacity="0" x="0" y="0" width="16" height="16"></rect>
                <path d="M13.5633125,13.54625 L2.4454375,13.54625 C1.422125,13.54625 0.5925625,12.7165781 0.5925625,11.6933125 L0.5925625,4.2815 C0.5925625,3.25801563 1.422125,2.42848438 2.4454375,2.42848438 L13.5633125,2.42848438 C14.586625,2.42848438 15.4161875,3.25801563 15.4161875,4.2815 L15.4161875,11.6932813 C15.4161875,12.7165469 14.586625,13.54625 13.5633125,13.54625 L13.5633125,13.54625 Z M14.489875,4.2815 C14.489875,3.76967188 14.074875,3.35496875 13.5633125,3.35496875 L2.4454375,3.35496875 C1.93392188,3.35496875 1.51907813,3.76965625 1.51907813,4.2815 L1.51907813,11.6932813 C1.51907813,12.2049375 1.93392188,12.6197656 2.4454375,12.6197656 L13.5633125,12.6197656 C14.074875,12.6197656 14.489875,12.2049219 14.489875,11.6932813 L14.489875,4.2815 Z M12.6367969,7.98728125 L10.7839063,7.98728125 C10.2721563,7.98728125 9.857375,7.57259375 9.857375,7.0608125 L9.857375,5.20789063 C9.857375,4.69623438 10.2721719,4.28142188 10.7839063,4.28142188 L12.6367813,4.28142188 C13.1485313,4.28142188 13.5632969,4.69626563 13.5632969,5.20789063 L13.5632969,7.0608125 C13.5632969,7.57259375 13.1485156,7.98728125 12.6367813,7.98728125 L12.6367969,7.98728125 Z M12.6367969,5.67107813 C12.6367969,5.41532813 12.4293906,5.20789063 12.1736563,5.20789063 L11.2470781,5.20789063 C10.9913125,5.20789063 10.7839375,5.41534375 10.7839375,5.67107813 L10.7839375,6.59760938 C10.7839375,6.8535 10.9913281,7.06079688 11.2470781,7.06079688 L12.1736406,7.06079688 C12.4294219,7.06079688 12.6367969,6.8535 12.6367969,6.59760938 L12.6367969,5.67107813 Z M8.46765625,11.6932187 L2.9088125,11.6932187 C2.65304688,11.6932187 2.4454375,11.485875 2.4454375,11.2300312 C2.4454375,10.9741406 2.65304688,10.7667969 2.9088125,10.7667969 L8.46767188,10.7667969 C8.72365625,10.7667969 8.93104687,10.9741406 8.93104687,11.2300312 C8.93104687,11.485875 8.72365625,11.6932187 8.46767188,11.6932187 L8.46765625,11.6932187 Z M8.46765625,9.84029687 L2.9088125,9.84029687 C2.65304688,9.84029687 2.4454375,9.63290625 2.4454375,9.37701563 C2.4454375,9.12123438 2.65304688,8.91382813 2.9088125,8.91382813 L8.46767188,8.91382813 C8.72365625,8.91382813 8.93104687,9.12121875 8.93104687,9.37701563 C8.93104687,9.63290625 8.72365625,9.84029687 8.46767188,9.84029687 L8.46765625,9.84029687 Z" id="形状" fill="#000000" fill-rule="nonzero"></path>
            </g>
        </g>
    </g>
</svg>