<?xml version="1.0" encoding="UTF-8"?>
<svg width="51px" height="50px" viewBox="0 0 51 50" version="1.1" xmlns="http://www.w3.org/2000/svg" xmlns:xlink="http://www.w3.org/1999/xlink">
    <title>编组</title>
    <defs>
        <polygon id="path-1" points="0.0401496674 0.0172949002 2.50289911 0.0172949002 2.50289911 2.85492794 0.0401496674 2.85492794"></polygon>
        <polygon id="path-3" points="0 49.9827051 49.5763858 49.9827051 49.5763858 0.0554323725 0 0.0554323725"></polygon>
    </defs>
    <g id="应用平台" stroke="none" stroke-width="1" fill="none" fill-rule="evenodd">
        <g transform="translate(-584.000000, -834.000000)" id="编组">
            <g transform="translate(584.500000, 834.000000)">
                <path d="M0.596776377,5.4203692 L0.596776377,5.4203692 L0.552818043,5.4134942 L0.502401377,5.38464004 L0.596776377,5.4203692 Z M2.9827051,6.55854213 C3.12339246,6.07966186 3.32998891,5.62661308 3.59661863,5.21197894 L3.64706208,5.13359756 L1.31790466,3.63592572 L1.2674612,3.7143071 C1.08143016,4.00349778 0.912583149,4.30809867 0.767627494,4.62012749 L0.666297118,4.83941796 L0.66635255,4.83941796 L0.65886918,4.85638027 L0.659368071,4.85649113 L0.646230599,4.88592572 L0.64695122,4.88620288 L0.576496674,5.03376386 L0.576496674,5.05416297 L0.552827051,5.11508315 L0.552439024,5.11497228 L0.52267184,5.19257761 L0.522949002,5.19263304 L0.51402439,5.21536031 L0.514966741,5.21580377 L0.498170732,5.2579878 L0.498281596,5.25804324 L0.463137472,5.35466186 L0.464079823,5.35504989 L0.437694013,5.42716741 C0.43713969,5.42888581 0.436585366,5.43054878 0.436141907,5.43215632 L0.433702882,5.43958426 C0.431152993,5.44590355 0.428991131,5.45310976 0.426829268,5.46197894 L0.39578714,5.55227827 C0.371452328,5.62689024 0.348170732,5.70227827 0.32594235,5.77816519 L0.299778271,5.86757761 L2.95648559,6.64795455 L2.9827051,6.55854213 Z" id="Fill-1" fill="#0F39D1"></path>
                <path d="M0.370881375,10.0982317 L0.370881375,10.0982317 L0.307300443,10.1263359 L0.285404656,10.1263359 L0.285515521,10.1359812 L0.284684035,10.1363692 L0.353586475,10.3563248 L3.00524945,9.57694568 L2.9789745,9.48742239 C2.83917406,9.01148004 2.76849778,8.51990576 2.76905211,8.02622506 L2.76916297,7.93293237 L0.000149667406,7.92966186 L3.18250148e-05,8.02295455 C-0.000903547672,8.73115854 0.0936086475,9.43764412 0.280970067,10.1227882 L0.370881375,10.0982317 Z" id="Fill-3" fill="#0F39D1"></path>
                <path d="M11.7424298,1.05576936 L11.6949298,1.11472769 L11.6949298,1.11472769 L11.7196173,1.05576936 L11.7424298,1.05576936 Z M11.3841131,4.09940687 L11.4544568,4.16065965 L13.2725277,2.07196785 L13.202184,2.01077051 C12.9333925,1.77673503 12.646031,1.55894124 12.3371619,1.35628049 L12.3114967,1.33942905 L12.3110532,1.34014967 L12.2114412,1.27579268 L12.1567849,1.35145787 L12.1567295,1.35145787 L12.1903769,1.26282151 L12.0373836,1.16947339 C11.9403769,1.11204545 11.841929,1.05655765 11.7412084,1.00273282 L11.7154878,1.03471729 L11.715765,0.994528825 L11.7176497,0.9902051 L11.6064523,0.932167406 C11.6043459,0.931058758 11.602184,0.929950111 11.6000222,0.929063193 L11.5506319,0.904118625 L11.5505211,0.90422949 L11.5349446,0.896136364 L11.4932594,0.979506652 L11.5111086,0.898131929 L11.5166519,0.892588692 L11.5131042,0.889096452 L11.5138248,0.885881375 L11.4910976,0.874351441 C11.4262971,0.842644124 11.3612749,0.811823725 11.2955876,0.781779379 L11.2108315,0.743032151 L10.0592794,3.2614357 L10.1440355,3.30018293 C10.5937583,3.50572616 11.0109424,3.7746286 11.3841131,4.09940687 L11.3841131,4.09940687 Z" id="Fill-5" fill="#0F39D1"></path>
                <path d="M2.67598115,13.9857594 L2.81278825,14.1146397 L4.63385255,12.0195177 L4.56350887,11.9583204 C4.18978381,11.6333758 3.8638969,11.2561585 3.59516075,10.8370898 L3.54482816,10.7585421 L1.21378603,12.2532206 L1.26395233,12.3317129 C1.29360865,12.3779435 1.32354213,12.4235643 1.35375277,12.4685754 L1.38080377,12.5084867 L1.45536031,12.4525554 L1.39200111,12.5250055 L1.415449,12.5592627 L1.49410754,12.5090965 L1.4270898,12.575837 L1.50946231,12.6925222 L1.50968404,12.6923004 C1.50541574,12.685316 1.50253326,12.6785532 1.50087029,12.6732871 L1.51140244,12.6912472 L1.58806541,12.6421341 L1.58806541,12.6421896 L1.52259978,12.7085421 L1.5868459,12.7979545 C1.70868625,12.9612583 1.83795455,13.1214579 1.98230044,13.2867572 L2.0002051,13.3071563 L2.07631375,13.2525 L2.0135643,13.3217905 L2.02575942,13.3359812 L2.09953991,13.2786641 L2.0407816,13.3529435 L2.06932927,13.384429 L2.14089246,13.3245621 L2.08241131,13.3989523 L2.13202328,13.4529435 L2.13230044,13.4527772 L2.34050443,13.6692406 L2.41145787,13.6084867 L2.35752217,13.686092 L2.38728936,13.7157483 L2.45652439,13.6529989 L2.40524945,13.7334313 L2.50314302,13.8273891 L2.56894124,13.76148 L2.51716741,13.8402494 L2.54893016,13.8704047 L2.61350887,13.8031098 L2.56295455,13.8832095 L2.59737805,13.9151386 L2.6615133,13.8473448 L2.61123614,13.9276109 L2.6615133,13.97301 L2.72742239,13.9069346 L2.67598115,13.9857594 Z" id="Fill-7" fill="#0F39D1"></path>
                <path d="M12.3515854,5.22134701 C12.6199889,5.64080377 12.8269734,6.0949612 12.9666075,6.57145787 L12.9927716,6.66098115 L15.6501996,5.88204545 L15.62398,5.79252217 C15.41051,5.06408537 15.0941574,4.36957317 14.6836807,3.72833149 L14.6334035,3.64972838 L12.3013082,5.14285477 L12.3515854,5.22134701 Z" id="Fill-9" fill="#0F39D1"></path>
                <path d="M13.1853991,14.0575333 C13.7620621,13.5598614 14.2628381,12.9839191 14.6738692,12.345837 L14.7243126,12.2675111 L12.3962084,10.7681208 L12.345765,10.8465576 C12.0784146,11.2616353 11.7522506,11.6366353 11.3761973,11.9611364 L11.3056319,12.0220565 L13.1148337,14.1184534 L13.1853991,14.0575333 Z" id="Fill-11" fill="#0F39D1"></path>
                <path d="M10.1265078,12.7617406 C9.67356984,12.9682816 9.19574279,13.1085255 8.70627494,13.1786475 L8.61392461,13.1918958 L8.99330377,15.8407871 L9.02151885,15.9311973 L9.21120843,15.9017073 C9.21924612,15.9017073 9.22722838,15.9007095 9.22805987,15.9002661 L9.30710643,15.8871286 C9.98504435,15.7715521 10.647184,15.5677273 11.27551,15.2813636 L11.3603769,15.2426718 L10.2113747,12.7229933 L10.1265078,12.7617406 Z" id="Fill-13" fill="#0F39D1"></path>
                <path d="M13.1754047,8.03286031 C13.1744069,8.48635255 13.1130987,8.94128603 12.9931984,9.38468958 C12.9826663,9.42349224 12.971857,9.46201774 12.9606042,9.50043237 L12.9342184,9.58984479 L15.5010698,10.3459424 L15.5933093,10.3564745 L15.6277882,10.2451109 C15.641092,10.1993237 15.6538969,10.153592 15.6662029,10.107306 L15.6924778,10.0085809 L15.692367,10.0085809 L15.6950277,9.99810421 L15.6941962,9.99793792 L15.7012916,9.97382483 C15.8334424,9.45004435 15.9126552,8.9122949 15.9367683,8.37238359 L15.9388747,8.32116408 L15.9371563,8.32055432 L15.9404268,8.27820399 L15.9396508,8.26107539 L15.943143,8.16855876 C15.9439745,8.12498891 15.9444734,8.08152993 15.9444734,8.03801552 L15.9444734,7.945 L13.175571,7.93956763 L13.1754047,8.03286031 Z" id="Fill-15" fill="#0F39D1"></path>
                <path d="M5.71921286,12.7177162 L4.56960089,15.2371729 L4.65452328,15.2758647 C4.74964523,15.3192129 4.84609756,15.3610089 4.95324834,15.4048559 L4.97542129,15.4136696 L4.97558758,15.4131707 L5.00446785,15.4255322 L5.04465632,15.3411641 L5.02431264,15.4333481 L5.10125277,15.4635033 C5.10690687,15.4657761 5.11217295,15.4674945 5.11189579,15.4674945 L5.11156319,15.4674945 L5.13101996,15.4743126 C5.13767184,15.4775831 5.14432373,15.4800222 5.15186253,15.4827938 L5.30042129,15.5370621 C5.42797118,15.5823503 5.55723947,15.6244789 5.69133038,15.6645011 L5.7840133,15.6916075 L5.80956763,15.601918 L5.80396896,15.6972616 L5.85286031,15.7107317 L5.85286031,15.7106208 L6.10080931,15.7750333 L6.12337029,15.6845676 L6.11932373,15.7794678 L6.14426829,15.689612 L6.13955654,15.784235 L6.16777162,15.6952106 L6.15845898,15.7886696 L6.4095122,15.8414967 L6.4095122,15.7627273 L6.41289357,15.7490355 L6.412949,15.7490355 L6.40984479,15.8434922 L6.45092018,15.8516408 L6.46732816,15.7597894 L6.47314856,15.8559091 L6.49315965,15.8598448 L6.51427938,15.7689357 L6.51389135,15.8257539 L6.49825942,15.857184 L6.62425721,15.8835144 L6.64254989,15.792051 L6.6436031,15.8868404 L6.66339246,15.7956541 L6.66383592,15.8901109 L6.9227051,15.929745 L7.32281596,13.1898337 L7.23052106,13.1763636 C7.02425721,13.1462084 6.81716186,13.1031375 6.6148337,13.0484812 C6.335898,12.9729823 6.06305987,12.8747561 5.80396896,12.7564634 L5.71921286,12.7177162 Z" id="Fill-17" fill="#0F39D1"></path>
                <path d="M4.56534922,4.09664634 C4.94134701,3.77159091 5.36152439,3.50185698 5.81440687,3.29498337 L5.8992184,3.25623614 L4.78707871,0.82231153 L4.74711197,0.738165188 L4.49217849,0.857012195 L4.52893016,0.942932373 L4.47277716,0.866491131 L4.51285477,0.950748337 L4.45603659,0.874916851 L4.48901885,0.9625 L4.43281042,0.886280488 L4.41174612,0.896757206 L4.4511031,0.981236142 L4.39478381,0.905293792 L4.43408537,0.989883592 L4.37699002,0.914162971 L4.18552661,1.01477273 L4.22222284,1.10047118 L4.16546009,1.02524945 L4.14905211,1.03417406 L4.19101441,1.11743348 L4.19101441,1.11748891 L4.12820953,1.04564856 L4.08901885,1.06732262 L4.1320898,1.15008315 L4.07255543,1.07663525 L3.993398,1.12314302 L4.0415133,1.18090355 L4.04905211,1.1970898 L3.99090355,1.12319845 L3.81562639,1.22707871 L3.86152439,1.30828714 L3.86152439,1.30828714 L3.79966186,1.23700111 L3.77682373,1.25091463 L3.82211197,1.33251109 L3.75825388,1.26238914 L3.74145787,1.27286585 L3.79012749,1.35246674 L3.79007206,1.35246674 L3.72410754,1.28378603 L3.76989468,1.36510532 L3.70648004,1.29498337 L3.6687306,1.31893016 L3.71601441,1.39936253 L3.65215632,1.32968404 L3.63402993,1.34138027 L3.68325388,1.42059313 L3.61823171,1.35163525 L3.66629157,1.43156874 L3.60210089,1.36211197 L3.58608093,1.37264412 L3.63547118,1.45174612 L3.56967295,1.38350887 L3.6185643,1.46288803 L3.55343126,1.39437361 L3.38120288,1.51211197 L3.43181264,1.59060421 L3.36562639,1.52336475 L3.2606929,1.59869734 L3.31196785,1.67669069 L3.25409645,1.61937361 L3.25038248,1.60989468 L3.24628049,1.61155765 L3.24517184,1.61055987 L3.22854213,1.6222561 L3.27887472,1.70108093 L3.22410754,1.64853104 L3.21640244,1.63306541 L3.21130266,1.63611419 L3.21063747,1.6356153 L3.19234479,1.64925166 L3.24062639,1.72957317 L3.17615854,1.66211197 L3.15631375,1.67635809 L3.21457317,1.74925166 L3.14134701,1.68866408 L3.10792129,1.71327605 L3.16501663,1.78700111 L3.16501663,1.78705654 L3.09245565,1.72536031 L2.9379102,1.84775499 L2.99616962,1.92059313 L2.92344235,1.85983925 L2.80836475,1.95551552 L2.8666796,2.0279102 L2.80476164,1.97829823 L2.79666851,1.96615854 L2.79312084,1.96898559 L2.79273282,1.96870843 L2.69594789,2.0761918 L4.49472838,4.15756652 L4.56534922,4.09664634 Z" id="Fill-19" fill="#0F39D1"></path>
                <g transform="translate(6.707317, 0.038137)">
                    <mask id="mask-2" fill="white">
                        <use xlink:href="#path-1"></use>
                    </mask>
                    <g id="Clip-22"></g>
                    <path d="M2.30145452,0.127823471 L2.28218369,0.220844304 L2.28051702,0.190948471 L2.30145452,0.127823471 Z M0.527178492,2.83890798 C1.01609202,2.76834257 1.51254435,2.76878603 2.00295455,2.84001663 L2.01631375,2.74777716 L2.01049335,2.84118071 L2.10295455,2.85492794 L2.49142461,0.207256098 L2.50289911,0.119395787 L2.28094789,0.0832538803 L2.28083703,0.0843070953 L2.18687916,0.0715022173 L2.15949557,0.162189579 L2.16587029,0.0691186253 L2.14724501,0.0669013304 C1.69314302,0.0160144124 1.23194568,0.00409645233 0.776624169,0.0319789357 L0.726735033,0.0352494457 L0.727012195,0.0387971175 L0.718697339,0.0430099778 L0.732998891,0.128209534 L0.703896896,0.0369678492 L0.358109756,0.0688414634 C0.282666297,0.0774889135 0.207222838,0.0871341463 0.132278271,0.0980543237 L0.0401496674,0.111468958 L0.43482816,2.85221175 L0.527178492,2.83890798 Z" id="Fill-21" fill="#0F39D1" mask="url(#mask-2)"></path>
                </g>
                <polygon id="Fill-23" fill="#0F39D1" points="32.572112 13.3322561 26.1371341 13.3322561 26.1371341 0.362799335 23.779041 0.362799335 23.779041 13.3322561 17.3441741 13.3322561 17.3441741 15.6132982 32.572112 15.6132982"></polygon>
                <polygon id="Fill-25" fill="#0F39D1" points="35.3788636 15.6096397 37.4203271 15.6096397 37.4203271 2.6493847 38.8252605 2.6493847 38.8252605 15.6096397 40.8668902 15.6096397 40.8668902 2.6493847 42.2717129 2.6493847 42.2717129 15.6096397 44.3132871 15.6096397 44.3132871 2.6493847 45.7181652 2.6493847 45.7181652 15.6096397 47.7597395 15.6096397 47.7597395 2.6493847 49.2361253 2.6493847 49.2361253 0.366457871 33.9717129 0.366457871 33.9717129 2.6493847 35.3788636 2.6493847"></polygon>
                <path d="M7.97221175,30.973071 C6.43313193,30.973071 4.98618071,30.3687472 3.89776608,29.2713525 C2.80912971,28.1739579 2.2096286,26.7146452 2.2096286,25.1626497 C2.2096286,23.6105432 2.80912971,22.1512306 3.89776608,21.0537805 C4.98606984,19.9564967 6.43302106,19.3522284 7.97221175,19.3522284 C9.51140244,19.3522284 10.9584091,19.9564967 12.0466574,21.0537805 C13.1353492,22.1512306 13.7348503,23.6105432 13.7348503,25.1626497 C13.7348503,26.7146452 13.1353492,28.1739579 12.0466574,29.2713525 C10.9582982,30.3687472 9.51134701,30.973071 7.97221175,30.973071 M7.97221175,17.3204656 C3.68268847,17.3204656 0.192888027,20.8384812 0.192888027,25.1626497 C0.192888027,29.4868182 3.68268847,33.0047783 7.97221175,33.0047783 C12.2617905,33.0047783 15.7515909,29.4868182 15.7515909,25.1626497 C15.7515909,20.8384812 12.2617905,17.3204656 7.97221175,17.3204656" id="Fill-27" fill="#0F39D1"></path>
                <polygon id="Fill-29" fill="#0F39D1" points="26.0714745 32.7878825 26.0714745 19.8183149 32.1166519 19.8183149 32.1166519 17.5373282 17.7995787 17.5373282 17.7995787 19.8183149 23.8448115 19.8183149 23.8448115 32.7878825"></polygon>
                <polygon id="Fill-31" fill="#0F39D1" points="49.2374945 20.6712805 42.7501885 20.6712805 42.7501885 17.5233869 40.457561 17.5233869 40.457561 20.6712805 33.9704767 20.6712805 33.9704767 22.8109701 49.2374945 22.8109701"></polygon>
                <mask id="mask-4" fill="white">
                    <use xlink:href="#path-3"></use>
                </mask>
                <g id="Clip-34"></g>
                <polygon id="Fill-33" fill="#0F39D1" mask="url(#mask-4)" points="33.9704545 26.1412417 49.2374723 26.1412417 49.2374723 24.0016075 33.9704545 24.0016075"></polygon>
                <polygon id="Fill-35" fill="#0F39D1" mask="url(#mask-4)" points="33.9704545 29.4715632 49.2374723 29.4715632 49.2374723 27.331929 33.9704545 27.331929"></polygon>
                <polygon id="Fill-36" fill="#0F39D1" mask="url(#mask-4)" points="33.9704545 32.8017738 49.2374723 32.8017738 49.2374723 30.6621397 33.9704545 30.6621397"></polygon>
                <polygon id="Fill-37" fill="#0F39D1" mask="url(#mask-4)" points="0.352638581 36.6905599 1.75973392 36.6905599 1.75973392 49.6703271 3.80125277 49.6703271 3.80125277 36.6905599 5.20618625 36.6905599 5.20618625 49.6703271 7.24776053 49.6703271 7.24776053 36.6905599 8.65258315 36.6905599 8.65258315 49.6703271 10.6942129 49.6703271 10.6942129 36.6905599 12.0990355 36.6905599 12.0990355 49.6703271 14.1406098 49.6703271 14.1406098 36.6905599 15.6171619 36.6905599 15.6171619 34.4043625 0.352638581 34.4043625"></polygon>
                <polygon id="Fill-38" fill="#0F39D1" mask="url(#mask-4)" points="19.4798392 36.5110033 23.9818902 36.5110033 23.9818902 34.4105599 17.3314468 34.4105599 17.3314468 49.664163 23.9818902 49.664163 23.9818902 47.5637195 19.4798392 47.5637195"></polygon>
                <polygon id="Fill-39" fill="#0F39D1" mask="url(#mask-4)" points="25.9344124 36.5110033 30.436408 36.5110033 30.436408 47.5637195 25.9344124 47.5637195 25.9344124 49.664163 32.5848559 49.664163 32.5848559 34.4105599 25.9344124 34.4105599"></polygon>
                <polygon id="Fill-40" fill="#0F39D1" mask="url(#mask-4)" points="23.8457317 43.1504989 26.0705654 43.1504989 26.0705654 40.9256652 23.8457317 40.9256652"></polygon>
                <path d="M34.1397672,39.3347589 L34.2439339,39.3964255 L34.210379,39.3885089 L34.1528796,39.3516339 L34.1397672,39.3347589 Z M36.6144346,40.607633 C36.7551774,40.1289745 36.9617184,39.6759812 37.2284035,39.2612916 L37.278847,39.1827993 L34.9496341,37.6850166 L34.8991907,37.7635089 C34.7133814,38.0524224 34.5445344,38.3571341 34.3974723,38.6691075 L34.4818404,38.7088525 L34.3936475,38.6918902 L34.3900998,38.6893958 L34.3889911,38.6910033 L34.3873282,38.690837 L34.3790687,38.7086863 L34.3795676,38.7088525 L34.3427605,38.7877328 L34.4261863,38.829418 L34.3597228,38.8124557 L34.3391574,38.7988193 L34.3351663,38.8063027 L34.3345011,38.8061364 L34.3006874,38.882633 L34.3007428,38.8827993 L34.2470843,39.0084645 L34.247306,39.0086308 L34.2082262,39.0997062 L34.191153,39.1461585 L34.1927605,39.1425 L34.191153,39.1560255 L34.1882151,39.1550831 L34.1700887,39.1960477 L34.1700887,39.2031984 L34.1696452,39.2029767 L34.165765,39.2142849 L34.1653769,39.2140632 L34.1258537,39.3184424 L34.132949,39.3217683 L34.1305654,39.3248171 L34.1249667,39.3221563 L34.1093348,39.3632871 C34.1078936,39.3668902 34.1065078,39.3707705 34.1053437,39.3745953 L34.0608869,39.5056929 L34.1476386,39.535959 L34.0603326,39.5173891 L34.0570067,39.5159479 L34.0567295,39.5166131 L34.055898,39.5164468 L34.0275166,39.6015355 C34.0032373,39.6762029 33.9799002,39.7515909 33.9577273,39.827367 L33.9314523,39.9167794 L36.5882705,40.6972672 L36.6144346,40.607633 Z" id="Fill-41" fill="#0F39D1" mask="url(#mask-4)"></path>
                <polygon id="Fill-42" fill="#0F39D1" mask="url(#mask-4)" points="34.2055035 39.1935912 34.1855035 39.2136954 34.1855035 39.239112"></polygon>
                <path d="M36.6107151,43.5368348 C36.4709701,43.0608925 36.4002938,42.5693182 36.4008481,42.0755266 L36.4009035,41.9822339 L33.6318902,41.9789634 L33.6317724,42.0722007 C33.630837,42.780571 33.7253492,43.4869457 33.9158149,44.1835643 L33.9230211,44.2090632 L33.9236308,44.2088969 L33.9277882,44.2229213 L33.9276774,44.2298503 L33.9853271,44.4056264 L36.6371009,43.6262472 L36.6107151,43.5368348 Z" id="Fill-43" fill="#0F39D1" mask="url(#mask-4)"></path>
                <path d="M45.9181722,35.4682913 L45.9203597,35.466208 L45.9069222,35.4932913 L45.9181722,35.4682913 Z M45.1309577,35.0150445 L45.1143952,35.044732 L45.1213744,35.019732 L45.1309577,35.0150445 Z M45.1428429,35.0270725 L45.1806554,34.979885 L45.181697,34.9795725 L45.1295095,35.0706141 L45.1428429,35.0270725 Z M45.1638027,34.9438525 L45.1629712,34.9452938 L45.1164634,34.920571 C45.0538803,34.8899169 44.9909645,34.8600942 44.9273836,34.8309368 L44.8425721,34.7921896 L43.69102,37.3107594 L43.7757761,37.3495621 C44.2258315,37.5553825 44.643071,37.8242295 45.0159091,38.1485643 L45.0861973,38.2098171 L46.9043237,36.1211807 L46.8339246,36.0600388 C46.5584257,35.8201275 46.2639135,35.5977328 45.9585366,35.3986752 L45.9056541,35.364418 C45.8991131,35.3594845 45.895898,35.3583758 45.8973947,35.3591519 L45.7793792,35.2861475 C45.7717849,35.2801053 45.7634146,35.2751718 45.7601441,35.2735089 L45.7599224,35.2737306 L45.6690133,35.2187417 C45.5721175,35.1615355 45.4737251,35.1059922 45.3674058,35.0489523 L45.3235033,35.1313248 L45.3484479,35.0389745 L45.1638027,34.9438525 Z" id="Fill-44" fill="#0F39D1" mask="url(#mask-4)"></path>
                <path d="M35.8016763,47.4571347 L35.8143846,47.4322389 L35.8307388,47.4189056 L35.8016763,47.4571347 Z M38.1952494,46.007694 C37.8215244,45.6828049 37.4956929,45.3055876 37.2269013,44.8864634 L37.1765687,44.8079157 L34.8454157,46.3027605 L34.8958592,46.3812528 C34.9231319,46.423714 34.9507373,46.4660089 34.9790078,46.5080266 L35.0042849,46.5457206 C35.0061142,46.5484922 35.0079435,46.5512084 35.0090521,46.5526497 L35.0421452,46.6013193 L35.1200831,46.5500998 L35.0531763,46.6167849 L35.1962472,46.8154545 L35.2621563,46.7496009 L35.2070011,46.8316962 L35.2185865,46.8471619 C35.3402051,47.0104102 35.4696397,47.1706652 35.6142627,47.336408 L35.6316685,47.3560865 L35.7014024,47.2943348 L35.649684,47.3764856 L35.6912029,47.4185588 L35.711602,47.3882927 L35.7547838,47.3540909 L35.6965798,47.4287583 L35.7700831,47.3710532 L35.7127106,47.4464412 L35.743531,47.4775942 L35.742367,47.4790355 L35.8324446,47.57449 L35.8325554,47.5743237 L35.8351053,47.5769845 C35.8402051,47.5839135 35.8459146,47.5897894 35.8512361,47.5948891 L35.8693625,47.613847 L35.8693625,47.6136253 L35.9186973,47.6644568 C35.9206375,47.6664523 35.922633,47.6684479 35.9249058,47.6706652 L36.0471341,47.7926718 C36.0494069,47.7950554 36.0525665,47.7979379 36.0526774,47.7979379 C36.0526774,47.7979379 36.0518459,47.7972173 36.0497395,47.7950554 L36.1293958,47.8717184 L36.1961918,47.8063636 L36.1430322,47.8844678 L36.317755,48.0441685 C36.3195843,48.0458869 36.326347,48.0518736 36.3225222,48.0471064 L36.4445288,48.163847 L38.265704,46.0687251 L38.1952494,46.007694 Z" id="Fill-45" fill="#0F39D1" mask="url(#mask-4)"></path>
                <path d="M48.2651552,37.6992794 L45.9330599,39.1920732 L45.9832262,39.2705654 C46.2517406,39.6900222 46.4586142,40.1442905 46.5983592,40.6207871 L46.6245233,40.7101996 L49.2819512,39.9313747 L49.2557317,39.8419069 C49.0422062,39.1131929 48.7259091,38.4187361 48.3154324,37.7777716 L48.2651552,37.6992794 Z" id="Fill-46" fill="#0F39D1" mask="url(#mask-4)"></path>
                <path d="M45.9774889,44.8957428 C45.7103049,45.3106541 45.3840854,45.6857095 45.0079767,46.0104324 L44.9374113,46.0714634 L46.7466131,48.167694 L46.8171231,48.1068847 C47.3935643,47.6094346 47.8943404,47.0336585 48.3055931,46.395133 L48.3560366,46.3168071 L46.0279324,44.8172506 L45.9774889,44.8957428 Z" id="Fill-47" fill="#0F39D1" mask="url(#mask-4)"></path>
                <path d="M43.7582428,46.8111364 C43.3052494,47.0175111 42.8273115,47.157755 42.33801,47.2278769 L42.2456596,47.2411807 L42.6106818,49.7894623 L42.7035865,49.7805931 L42.7041408,49.7845288 L42.7038636,49.7845843 L42.7046397,49.7900166 L42.6115687,49.795837 L42.6383426,49.9826996 L42.8332428,49.9534313 L42.8330765,49.9526552 L42.9388969,49.9366353 C43.6172783,49.8207816 44.279418,49.6169568 44.9071896,49.3306486 L44.9920565,49.2918459 L43.8431098,46.7725 L43.7582428,46.8111364 Z" id="Fill-48" fill="#0F39D1" mask="url(#mask-4)"></path>
                <path d="M46.8073503,41.9887916 L46.8071286,42.0820843 C46.8061863,42.5357428 46.744878,42.9905654 46.6250333,43.4338581 C46.6144457,43.4727162 46.6035809,43.5115188 46.5923282,43.5497118 L46.5659978,43.6393459 L49.1327938,44.3952217 L49.2243126,44.4092461 L49.2595122,44.2943348 C49.2728714,44.2486585 49.2856763,44.2028714 49.296541,44.1619069 L49.3049113,44.1309756 L49.3046341,44.1309756 L49.3270288,44.0464412 L49.3263082,44.0462195 L49.3330155,44.0231042 C49.4651663,43.49949 49.5444346,42.9616297 49.5684922,42.4221064 L49.5694346,42.3997118 L49.5676608,42.3971619 L49.5722062,42.3267073 L49.571929,42.3079157 L49.5749224,42.217949 C49.5757539,42.1744346 49.5760865,42.1308647 49.5761973,42.0875166 L49.5763636,41.9942794 L46.8073503,41.9887916 Z" id="Fill-49" fill="#0F39D1" mask="url(#mask-4)"></path>
                <path d="M40.1243998,49.918313 L40.1567957,49.8141463 L40.1534623,49.8929972 L40.1243998,49.918313 Z M39.5627459,49.7850536 L39.5639959,49.7143951 L39.5757667,49.6808869 L39.5645167,49.7832325 L39.5627459,49.7850536 Z M38.8601813,49.5410217 L38.8607021,49.4978967 L38.8770563,49.4630009 L38.8619521,49.5386259 L38.8601813,49.5410217 Z M40.2465798,47.0978492 C39.9683647,47.0225721 39.6955266,46.924235 39.4357151,46.8058315 L39.3508481,46.7672506 L38.2014579,49.2863747 L38.2861585,49.3251774 C38.3813914,49.3686918 38.4778437,49.4102106 38.5693625,49.4474058 L38.6646508,49.4860421 L38.7035089,49.4011752 L38.6826663,49.4931375 L38.9322783,49.586541 C39.0597173,49.6315521 39.1890965,49.6737916 39.3206375,49.7129268 L39.534163,49.7723503 L39.5337749,49.7734035 L39.8089967,49.8420843 L39.8089967,49.841918 L39.8450831,49.8508426 L39.8678659,49.7603215 L39.865316,49.8548337 L39.9622672,49.8768404 C39.9670344,49.8787251 39.9710255,49.8788914 39.9745177,49.8790576 L40.0577217,49.8961863 L40.0772894,49.8049446 L40.0781208,49.9000111 L40.1005155,49.9043348 L40.1038969,49.8920288 L40.1216353,49.9058315 L40.1215798,49.9083814 L40.3572228,49.9495676 C40.3923115,49.955388 40.4274002,49.9606541 40.4625998,49.9657539 L40.5545621,49.9788914 L40.9545621,47.2389246 L40.8622118,47.2254545 C40.6576663,47.1957982 40.450571,47.1528381 40.2465798,47.0978492 L40.2465798,47.0978492 Z" id="Fill-50" fill="#0F39D1" mask="url(#mask-4)"></path>
                <path d="M40.2551692,49.9524842 L40.2514192,49.9521717 C40.256315,49.954255 40.2666275,49.9551925 40.2761067,49.9556092 L40.2551692,49.9521717 L40.2551692,49.9524842 Z" id="Fill-51" fill="#0F39D1" mask="url(#mask-4)"></path>
                <path d="M36.8605294,35.8478354 L36.8431335,35.8312729 L36.827196,35.799502 L36.8605294,35.8478354 Z M36.4799723,35.9713082 L36.3200499,36.1168736 L38.12648,38.2068958 L38.1971009,38.1458647 C38.5729324,37.8211419 38.9932206,37.551408 39.446214,37.3444235 L39.5309701,37.3056763 L38.4188304,34.8717517 L38.3665576,34.7947007 L38.2824113,34.8316741 L38.2825222,34.8318404 L38.2581874,34.8427605 L38.2896175,34.930898 L38.240061,34.8513525 L38.1417239,34.8979157 L38.1772007,34.9842239 L38.1771452,34.9842239 L38.1244845,34.9061752 L38.04699,34.9443681 L38.0812472,35.0314523 L38.0811918,35.0314523 L38.0304157,34.9544568 L37.9632871,34.987051 L37.963398,34.9872173 L37.881469,35.0292905 C37.8826885,35.0287361 37.8839634,35.0281818 37.8852938,35.0276275 L37.8732095,35.0341685 C37.8741519,35.0336696 37.8751497,35.032949 37.8762583,35.0321729 L37.612622,35.1782927 L37.6128991,35.178847 L37.5286973,35.2272949 L37.5730987,35.3093902 L37.5117905,35.2373282 L37.4320787,35.2857761 L37.4806375,35.3653215 L37.4163359,35.2959202 L37.3625111,35.3289024 L37.4087971,35.4099446 L37.346214,35.339102 L37.2116796,35.4261863 L37.2583537,35.5069512 L37.2583537,35.5070067 L37.1925,35.438714 L37.0637306,35.52602 C37.0635643,35.52602 37.0631763,35.5263525 37.062622,35.5269069 L37.1082982,35.6086142 L37.04699,35.5383814 L37.0289745,35.5504102 C37.0263137,35.552184 37.0240965,35.5540133 37.0224335,35.5552882 L36.9524778,35.6045122 L36.9997616,35.6853326 L36.9316907,35.6194235 L36.9254823,35.6235809 C36.9254823,35.6235809 36.9260366,35.6231929 36.9251497,35.624357 L36.9229878,35.6254656 C36.923653,35.6249113 36.9242073,35.6245233 36.9246508,35.6241353 L36.8620122,35.6704213 L36.8630654,35.6718625 L36.7893958,35.724745 L36.7896729,35.7250222 L36.7752605,35.7354435 L36.7755377,35.7358315 L36.742888,35.7602217 L36.7915576,35.8402661 L36.7915576,35.8403215 L36.7213248,35.7789579 L36.5688858,35.8979157 L36.6204379,35.97602 L36.552367,35.9117738 L36.5135089,35.9432594 L36.5699945,36.0174279 L36.4978215,35.9563415 L36.5545288,36.0302882 L36.4799723,35.9713082 Z" id="Fill-52" fill="#0F39D1" mask="url(#mask-4)"></path>
                <path d="M40.7817571,34.2397519 L40.7798821,34.2914283 L40.7797779,34.2914283 L40.7604029,34.1872616 L40.7817571,34.2397519 Z M42.4417517,36.9437472 L42.830388,34.2945233 L42.8552217,34.1883703 L42.7472395,34.1883703 L42.6482927,34.1743459 L42.6481818,34.1752882 L42.5862639,34.1663082 L42.5760643,34.2589911 L42.5674169,34.1639246 L42.5071064,34.1568847 L42.4985698,34.2496785 L42.4863193,34.1543348 C42.0318293,34.103337 41.5708537,34.0916408 41.1156984,34.1195233 L41.0868182,34.1211308 L41.0823282,34.2149224 L41.0664745,34.1225721 L41.0600443,34.2164191 L41.036929,34.1246231 L41.0265078,34.2189135 L41.0100998,34.1268404 L40.9253991,34.1331596 L40.9183038,34.1322727 L40.8666962,34.13898 L40.8571619,34.138592 L40.8081596,34.1448559 C40.8062195,34.1448559 40.8021175,34.1448559 40.7966851,34.1454102 L40.7619845,34.1490133 C40.759878,34.1491796 40.7589357,34.1494013 40.7608758,34.1494013 L40.7348226,34.1537805 L40.7345455,34.1519512 L40.7346563,34.1537805 L40.7286142,34.1563304 L40.7379823,34.2454656 L40.7159756,34.1541131 L40.6972395,34.1561086 C40.6217406,34.164867 40.5462971,34.1747339 40.4713525,34.1854324 L40.3792239,34.1989024 L40.7737916,36.9395898 L40.8661419,36.926286 C41.355388,36.8559424 41.8520621,36.8564967 42.3403659,36.9271729 L42.4417517,36.9437472 Z" id="Fill-53" fill="#0F39D1" mask="url(#mask-4)"></path>
            </g>
        </g>
    </g>
</svg>