<?xml version="1.0" encoding="UTF-8"?>
<svg width="191px" height="141px" viewBox="0 0 191 141" version="1.1" xmlns="http://www.w3.org/2000/svg" xmlns:xlink="http://www.w3.org/1999/xlink">
    <title>编组 10</title>
    <g id="插画" stroke="none" stroke-width="1" fill="none" fill-rule="evenodd">
        <g id="应用加载插画修改" transform="translate(-704.000000, -342.000000)">
            <g id="编组-10" transform="translate(705.000000, 343.000000)">
                <ellipse id="椭圆形备份-20" fill="#EBF1FB" fill-rule="nonzero" cx="43.66" cy="96.29" rx="41.53" ry="15.06"></ellipse>
                <polygon id="路径备份-272" fill="#ED8940" fill-rule="nonzero" points="32.26 54.54 23.14 56.48 1.10134124e-13 66.61 7.84 64.94"></polygon>
                <polygon id="路径备份-273" fill="#697FE5" fill-rule="nonzero" points="78.65 64.23 78.65 95.58 54.23 105.98 54.23 74.63"></polygon>
                <polygon id="路径备份-274" fill="#C4D1FF" fill-rule="nonzero" points="54.23 74.63 58.03 85.83 76.85 75.96 78.65 64.23"></polygon>
                <polygon id="路径备份-275" fill="#6689E6" fill-rule="nonzero" points="32.51 54.73 23.39 56.67 0.26 66.8 8.1 65.13"></polygon>
                <polygon id="路径备份-276" fill="#E3EAFF" fill-rule="nonzero" points="32.26 54.54 32.34 70 54.23 74.63 78.65 64.23"></polygon>
                <polygon id="路径备份-277" fill="#697FE5" fill-rule="nonzero" points="8.6 64.89 32.26 54.54 32.34 70"></polygon>
                <polygon id="路径备份-278" fill="#6689E6" fill-rule="nonzero" points="53.99 106.17 7.79 96.28 8.6 64.89 54.04 74.79"></polygon>
                <polygon id="路径备份-279" fill="#E3EAFF" fill-rule="nonzero" points="8.6 64.89 1.8 76.82 48.31 87.28 54.23 74.63"></polygon>
                <polyline id="路径备份-280" stroke="#3E3A39" stroke-width="0.66" stroke-linecap="round" stroke-linejoin="round" points="54.23 74.63 53.99 106.17 78.43 95.61 53.99 106.17 7.79 96.28 7.79 89.15"></polyline>
                <polyline id="路径备份-281" stroke="#4762E0" stroke-width="0.66" stroke-linecap="round" stroke-linejoin="round" points="14.34 62.27 32.26 54.54 32.26 65.78"></polyline>
                <polyline id="路径备份-282" stroke="#3E3A39" stroke-width="0.66" stroke-linecap="round" stroke-linejoin="round" points="58.03 85.83 76.85 75.96 78.65 64.23"></polyline>
                <polyline id="路径备份-283" stroke="#3E3A39" stroke-width="0.66" stroke-linecap="round" stroke-linejoin="round" points="5.11 70.34 1.8 76.82 48.31 87.28 54.23 74.63 17.4 66.93"></polyline>
                <polyline id="路径备份-284" stroke="#3E3A39" stroke-width="0.66" stroke-linecap="round" stroke-linejoin="round" points="78.43 95.61 78.65 64.23 32.26 54.54 23.14 56.48 -1.84741111e-13 66.61"></polyline>
                <ellipse id="椭圆形备份-21" fill="#EBF1FB" fill-rule="nonzero" cx="127.726338" cy="116.164093" rx="61.6189646" ry="23.8359074"></ellipse>
                <path d="M120.628916,11.5128362 C118.051093,14.7620956 116.525632,18.720317 116.256141,22.8591855 C116.094187,29.0229873 119.495233,30.3186241 119.495233,30.3186241 C125.335126,33.0813792 131.822837,28.0512596 131.822837,28.0512596 C134.252156,26.7556228 136.681475,20.9157302 136.681475,20.9157302" id="路径备份-285" fill="#FDF5ED" fill-rule="nonzero"></path>
                <path d="M137.862791,18.7912668 C140.939929,17.0097661 139.320383,21.0586313 139.320383,21.0586313 C137.367401,23.983341 135.5859,23.983341 135.5859,23.983341" id="路径备份-286" fill="#FDF5ED" fill-rule="nonzero"></path>
                <path d="M119.209431,6.94952702 C116.618157,8.74055443 118.885522,10.3601005 118.885522,10.3601005 C118.723567,12.4655104 121.63875,11.817692 121.63875,11.817692 C121.314841,13.9231019 123.591732,12.627465 123.591732,12.627465 C123.267823,15.3806933 126.506915,13.5801392 126.506915,13.5801392 C128.936234,19.2961841 132.22296,14.875776 132.22296,14.875776 C132.22296,19.9058956 137.081598,15.3616398 137.081598,15.3616398 C139.196535,19.0961225 140.816081,16.9907126 140.816081,16.9907126 C144.179021,15.7046025 142.540421,11.5128362 142.540421,11.5128362 C146.598813,10.0552448 141.244784,6.80662589 141.244784,6.80662589 C141.568694,0.48086948 135.728801,4.5392614 135.728801,4.5392614 C133.299482,-2.59626805 128.755226,1.46212386 128.755226,1.46212386 C123.896588,-2.59626805 123.896588,3.08166993 123.896588,3.08166993 C120.647969,1.46212386 120.971878,4.37730679 120.971878,4.37730679 C117.913794,3.54848027 119.209431,6.94952702 119.209431,6.94952702 Z" id="路径备份-287" fill="#586DB2" fill-rule="nonzero"></path>
                <path d="M136.233718,23.8976003 C132.261067,31.5189936 135.671641,34.5961311 135.671641,34.5961311 C124.887369,47.6572938 121.562536,36.0632493 121.562536,36.0632493 C124.315765,34.7580857 123.915642,31.1950844 123.915642,31.1950844" id="路径备份-288" fill="#FDF5ED" fill-rule="nonzero"></path>
                <path d="M135.671641,34.5961311 C144.017066,29.0039338 148.475581,29.6517522 148.475581,29.6517522 C155.696851,29.1658884 156.830534,40.1978551 156.830534,40.1978551 L171.263547,94.2716404 L151.562246,99.6256692 L144.017066,57.0601878" id="路径备份-289" fill="#9FAFD9" fill-rule="nonzero"></path>
                <path d="M94.2398415,74.084475 C94.2398415,74.084475 96.3452514,48.0002565 100.051154,39.6071972 C101.664925,36.0403129 104.547998,33.2013859 108.139357,31.6428412 C108.139357,31.6428412 116.227561,29.880394 121.562536,36.0632493" id="路径备份-290" fill="#9FAFD9" fill-rule="nonzero"></path>
                <path d="M106.395964,48.7909761 C94.4017961,64.3290916 90.829268,88.498435 90.829268,88.498435 C101.213416,99.7114098 132.994626,91.3564575 132.994626,91.3564575 C133.9473,73.5128705 148.561322,49.6293293 148.561322,49.6293293" id="路径备份-291" fill="#9FAFD9" fill-rule="nonzero"></path>
                <path d="M155.87786,98.3871928 C154.506009,101.683445 156.506625,103.417312 156.506625,103.417312 C159.774297,104.246139 168.415051,103.607847 168.415051,103.607847 C169.915168,103.160237 171.492749,103.033641 173.045048,103.236304 C176.445569,103.625978 179.882648,103.565117 183.267242,103.055296 C185.267857,101.40717 178.637245,101.149948 178.637245,101.149948 C176.292692,100.89823 173.935933,100.777371 171.57793,100.787932" id="路径备份-292" fill="#FDF5ED" fill-rule="nonzero"></path>
                <path d="M163.670734,98.9778507 C164.981608,99.8088951 166.451473,100.357255 167.986348,100.58787 C172.521077,100.58787 171.149226,103.150564 171.149226,103.150564 C168.62464,104.436674 161.250942,102.940975 161.250942,102.940975" id="路径备份-293" fill="#FDF5ED" fill-rule="nonzero"></path>
                <path d="M183.572097,102.779021 C185.153536,102.093095 183.000493,101.130894 183.000493,101.130894 C179.869748,100.46307 176.674743,100.143569 173.473751,100.17822" id="路径备份-294" fill="#FDF5ED" fill-rule="nonzero"></path>
                <path d="M183.50541,101.311902 C183.772159,100.540236 182.238354,100.12106 182.238354,100.12106 C179.814911,99.7188733 177.367576,99.4770039 174.912289,99.3970274" id="路径备份-295" fill="#FDF5ED" fill-rule="nonzero"></path>
                <path d="M132.813618,90.9753878 C146.151056,92.4329793 149.837905,93.8334103 149.837905,93.8334103 C160.536436,102.407478 153.124631,108.380745 153.124631,108.380745 C141.93071,113.982469 122.591424,118.669626 122.591424,118.669626" id="路径备份-296" fill="#F4A74D" fill-rule="nonzero"></path>
                <path d="M90.6482599,88.2602664 C81.9789251,87.650555 68.8415484,86.9360494 68.8415484,86.9360494 C57.1617632,90.2989891 58.2573385,99.7590435 58.2573385,99.7590435 C61.2963691,105.360768 108.367999,124.900115 108.367999,124.900115 L118.723567,109.733542 L74.4527992,94.6717635" id="路径备份-297" fill="#F4A74D" fill-rule="nonzero"></path>
                <path d="M80.2736383,112.496297 C84.3320302,112.858313 88.7333849,122.099253 88.7333849,122.099253 C89.4955242,125.033489 82.0646658,125.100176 82.0646658,125.100176 C68.19373,126.129064 62.1918828,124.147502 62.1918828,124.147502 C58.2954455,121.956351 59.1433255,117.478783 59.1433255,117.478783 C61.1725215,114.030102 68.1079893,115.135204 68.1079893,115.135204 C74.7767084,116.23078 77.2441345,113.229856 77.2441345,113.229856 C79.511499,112.105701 80.2736383,112.496297 80.2736383,112.496297 Z" id="路径备份-298" fill="#586DB2" fill-rule="nonzero"></path>
                <path d="M120.628916,11.5128362 C118.051093,14.7620956 116.525632,18.720317 116.256141,22.8591855 C116.094187,29.0229873 119.495233,30.3186241 119.495233,30.3186241 C125.335126,33.0813792 131.822837,28.0512596 131.822837,28.0512596 C134.252156,26.7556228 136.681475,20.9157302 136.681475,20.9157302" id="路径备份-299" fill="#FFFFFF" fill-rule="nonzero"></path>
                <path d="M135.5859,23.983341 C135.5859,23.983341 137.367401,23.983341 139.320383,21.0586313 C139.320383,21.0586313 140.939929,17.0097661 137.862791,18.7912668 L138.482029,17.3336753 L137.091125,15.428327 L135.042876,16.9240255 L133.661498,17.2669882 L132.584976,16.7430174 L132.061006,15.0377306 L125.659035,12.4655104 L120.895664,11.4175688" id="路径备份-300" fill="#FFFFFF" fill-rule="nonzero"></path>
                <path d="M119.209431,6.94952702 C116.618157,8.74055443 118.885522,10.3601005 118.885522,10.3601005 C118.723567,12.4655104 121.63875,11.817692 121.63875,11.817692 C121.314841,13.9231019 123.591732,12.627465 123.591732,12.627465 C123.267823,15.3806933 126.506915,13.5801392 126.506915,13.5801392 C128.936234,19.2961841 132.22296,14.875776 132.22296,14.875776 C132.22296,19.9058956 137.081598,15.3616398 137.081598,15.3616398 C139.196535,19.0961225 140.816081,16.9907126 140.816081,16.9907126 C144.179021,15.7046025 142.540421,11.5128362 142.540421,11.5128362 C146.598813,10.0552448 141.244784,6.80662589 141.244784,6.80662589 C141.568694,0.48086948 135.728801,4.5392614 135.728801,4.5392614 C133.299482,-2.59626805 128.755226,1.46212386 128.755226,1.46212386 C123.896588,-2.59626805 123.896588,3.08166993 123.896588,3.08166993 C120.647969,1.46212386 120.971878,4.37730679 120.971878,4.37730679 C117.913794,3.54848027 119.209431,6.94952702 119.209431,6.94952702 Z" id="路径备份-301" fill="#FFAF4B" fill-rule="nonzero"></path>
                <path d="M136.233718,23.8976003 C132.261067,31.5189936 135.671641,34.5961311 135.671641,34.5961311 C124.887369,47.6572938 121.562536,36.0632493 121.562536,36.0632493 C124.315765,34.7580857 123.915642,31.1950844 123.915642,31.1950844" id="路径备份-302" fill="#FFFFFF" fill-rule="nonzero"></path>
                <path d="M144.017066,57.0601878 L151.562246,99.6256692 L171.263547,94.2716404 L156.830534,40.1978551 C156.830534,40.1978551 155.696851,29.1658884 148.475581,29.6517522 C148.475581,29.6517522 144.017066,29.0039338 135.671641,34.5961311 L130.279505,39.8739459 L126.706977,40.8837805 L124.439612,40.2359621 L122.286569,37.6827954 L121.562536,36.0632493 C116.227561,29.880394 108.139357,31.6428412 108.139357,31.6428412 C104.547998,33.2013859 101.664925,36.0403129 100.051154,39.6071972 C96.3452514,48.0002565 94.2398415,74.084475 94.2398415,74.084475" id="路径备份-303" fill="#BAC9FF" fill-rule="nonzero"></path>
                <path d="M74.4337457,94.6717635 L118.723567,109.733542 L108.367999,124.881061 C108.367999,124.881061 61.2963691,105.341714 58.2573385,99.7399901 C58.2573385,99.7399901 57.1617632,90.2799357 68.8415484,86.9169959 C68.8415484,86.9169959 81.9789251,87.6315015 90.6482599,88.241213 L132.813618,90.9563343 C146.151056,92.4139258 149.837905,93.8143568 149.837905,93.8143568 C160.536436,102.388424 153.124631,108.361691 153.124631,108.361691 C141.93071,113.963415 122.591424,118.650572 122.591424,118.650572" id="路径备份-304" fill="#4762E0" fill-rule="nonzero"></path>
                <path d="M106.395964,48.7909761 C94.4017961,64.3290916 90.829268,88.498435 90.829268,88.498435 C101.213416,99.7114098 132.994626,91.3564575 132.994626,91.3564575 C133.9473,73.5128705 148.561322,49.6293293 148.561322,49.6293293" id="路径备份-305" fill="#BAC9FF" fill-rule="nonzero"></path>
                <path d="M163.670734,98.9778507 C164.981608,99.8088951 166.451473,100.357255 167.986348,100.58787 C172.521077,100.58787 171.149226,103.150564 171.149226,103.150564 C168.62464,104.436674 161.250942,102.940975 161.250942,102.940975" id="路径备份-306" fill="#FDF5ED" fill-rule="nonzero"></path>
                <path d="M183.572097,102.779021 C185.153536,102.093095 183.000493,101.130894 183.000493,101.130894 C179.869748,100.46307 176.674743,100.143569 173.473751,100.17822" id="路径备份-307" fill="#FDF5ED" fill-rule="nonzero"></path>
                <path d="M183.50541,101.311902 C183.772159,100.540236 182.238354,100.12106 182.238354,100.12106 C179.814911,99.7188733 177.367576,99.4770039 174.912289,99.3970274" id="路径备份-308" fill="#FDF5ED" fill-rule="nonzero"></path>
                <path d="M181.466687,99.8066773 C181.466687,99.8066773 178.837307,98.7968426 170.40614,98.4348265 C170.40614,98.4348265 166.033366,97.6059999 165.509395,96.1007748 L155.87786,98.3871928 C154.506009,101.683445 156.506625,103.417312 156.506625,103.417312 C159.774297,104.246139 168.415051,103.607847 168.415051,103.607847 C169.915168,103.160237 171.492749,103.033641 173.045048,103.236304 C176.445569,103.625978 179.882648,103.565117 183.267242,103.055296 C185.267857,101.40717 178.637245,101.149948 178.637245,101.149948 C176.292692,100.89823 173.935933,100.777371 171.57793,100.787932" id="路径备份-309" fill="#FFFFFF" fill-rule="nonzero"></path>
                <polyline id="路径备份-310" fill="#FFFFFF" fill-rule="nonzero" points="123.163029 117.840799 115.217726 114.925616 110.673471 121.441907 118.294864 124.35709 123.163029 117.840799"></polyline>
                <path d="M126.678397,115.668702 C122.620005,116.030718 118.21865,125.271658 118.21865,125.271658 C117.456511,128.205894 124.887369,128.272581 124.887369,128.272581 C138.758305,129.301469 144.760152,127.319907 144.760152,127.319907 C148.647063,125.11923 147.808709,120.651188 147.808709,120.651188 C145.779513,117.202507 138.844046,118.307609 138.844046,118.307609 C132.175326,119.403185 129.7079,116.402261 129.7079,116.402261 C127.431009,115.297159 126.678397,115.668702 126.678397,115.668702 Z" id="路径备份-311" fill="#4862E0" fill-rule="nonzero"></path>
                <path d="M80.2736383,112.496297 C84.3320302,112.858313 88.7333849,122.099253 88.7333849,122.099253 C89.4955242,125.033489 82.0646658,125.100176 82.0646658,125.100176 C68.19373,126.129064 62.1918828,124.147502 62.1918828,124.147502 C58.2954455,121.956351 59.1433255,117.478783 59.1433255,117.478783 C61.1725215,114.030102 68.1079893,115.135204 68.1079893,115.135204 C74.7767084,116.23078 77.2441345,113.229856 77.2441345,113.229856 C79.511499,112.105701 80.2736383,112.496297 80.2736383,112.496297 Z" id="路径备份-312" fill="#4862E0" fill-rule="nonzero"></path>
                <line x1="144.083753" y1="95.0433065" x2="104.671624" y2="105.017805" id="路径备份-313" fill="#F4A74D" fill-rule="nonzero"></line>
                <polygon id="路径备份-314" fill="#FFFFFF" fill-rule="nonzero" points="88.54285 121.098945 97.7075754 120.489233 83.0840271 113.734773"></polygon>
                <path d="M120.628916,11.5128362 C118.051093,14.7620956 116.525632,18.720317 116.256141,22.8591855 C116.094187,29.0229873 119.495233,30.3186241 119.495233,30.3186241 C125.335126,33.0813792 131.822837,28.0512596 131.822837,28.0512596 C134.252156,26.7556228 136.681475,20.9157302 136.681475,20.9157302" id="路径备份-315" stroke="#3E3A39" stroke-width="0.66" stroke-linecap="round" stroke-linejoin="round"></path>
                <path d="M137.862791,18.7912668 C140.939929,17.0097661 139.320383,21.0586313 139.320383,21.0586313 C137.367401,23.983341 135.5859,23.983341 135.5859,23.983341" id="路径备份-316" stroke="#333333" stroke-width="0.66" stroke-linecap="round" stroke-linejoin="round"></path>
                <path d="M142.540421,11.5128362 C146.598813,10.0552448 141.244784,6.80662589 141.244784,6.80662589 C141.568694,0.48086948 135.728801,4.5392614 135.728801,4.5392614 C133.299482,-2.59626805 128.755226,1.46212386 128.755226,1.46212386" id="路径备份-317" stroke="#3E3A39" stroke-width="0.66" stroke-linecap="round" stroke-linejoin="round"></path>
                <path d="M119.209431,6.94952702 C116.618157,8.74055443 118.885522,10.3601005 118.885522,10.3601005 C118.723567,12.4655104 121.63875,11.817692 121.63875,11.817692 C121.314841,13.9231019 123.591732,12.627465 123.591732,12.627465 C123.267823,15.3806933 126.506915,13.5801392 126.506915,13.5801392" id="路径备份-318" stroke="#3E3A39" stroke-width="0.66" stroke-linecap="round" stroke-linejoin="round"></path>
                <path d="M136.233718,23.8976003 C132.261067,31.5189936 135.671641,34.5961311 135.671641,34.5961311 C124.887369,47.6572938 121.562536,36.0632493 121.562536,36.0632493 C124.315765,34.7580857 123.915642,31.1950844 123.915642,31.1950844" id="路径备份-319" stroke="#3E3A39" stroke-width="0.66" stroke-linecap="round" stroke-linejoin="round"></path>
                <path d="M148.475581,29.6136452 C155.696851,29.1277814 156.830534,40.1597482 156.830534,40.1597482 L171.263547,94.2335334" id="路径备份-320" stroke="#3E3A39" stroke-width="0.66" stroke-linecap="round" stroke-linejoin="round"></path>
                <path d="M106.395964,48.7909761 C94.4017961,64.3290916 90.829268,88.498435 90.829268,88.498435 C101.213416,99.7114098 132.994626,91.3564575 132.994626,91.3564575 C133.9473,73.5128705 148.561322,49.6293293 148.561322,49.6293293" id="路径备份-321" stroke="#3E3A39" stroke-width="0.66" stroke-linecap="round" stroke-linejoin="round"></path>
                <path d="M155.87786,98.3871928 C154.506009,101.683445 156.506625,103.417312 156.506625,103.417312 C159.774297,104.246139 168.415051,103.607847 168.415051,103.607847 C169.915168,103.160237 171.492749,103.033641 173.045048,103.236304 C176.445569,103.625978 179.882648,103.565117 183.267242,103.055296 C185.267857,101.40717 178.637245,101.149948 178.637245,101.149948 C176.292692,100.89823 173.935933,100.777371 171.57793,100.787932" id="路径备份-322" stroke="#3E3A39" stroke-width="0.66" stroke-linecap="round" stroke-linejoin="round"></path>
                <path d="M163.670734,98.9778507 C164.981608,99.8088951 166.451473,100.357255 167.986348,100.58787 C172.521077,100.58787 171.149226,103.150564 171.149226,103.150564 C168.62464,104.436674 161.250942,102.940975 161.250942,102.940975" id="路径备份-323" stroke="#3E3A39" stroke-width="0.66" stroke-linecap="round" stroke-linejoin="round"></path>
                <path d="M183.572097,102.779021 C185.153536,102.093095 183.000493,101.130894 183.000493,101.130894 C179.869748,100.46307 176.674743,100.143569 173.473751,100.17822" id="路径备份-324" stroke="#3E3A39" stroke-width="0.66" stroke-linecap="round" stroke-linejoin="round"></path>
                <path d="M183.50541,101.311902 C183.772159,100.540236 182.238354,100.12106 182.238354,100.12106 C179.814911,99.7188733 177.367576,99.4770039 174.912289,99.3970274" id="路径备份-325" stroke="#3E3A39" stroke-width="0.66" stroke-linecap="round" stroke-linejoin="round"></path>
                <path d="M165.509395,96.1007748 C166.033366,97.6059999 170.40614,98.4348265 170.40614,98.4348265 C178.837307,98.7968426 181.466687,99.8066773 181.466687,99.8066773" id="路径备份-326" stroke="#3E3A39" stroke-width="0.66" stroke-linecap="round" stroke-linejoin="round"></path>
                <path d="M74.4337457,94.6717635 L118.723567,109.733542 L108.367999,124.881061 C95.2877831,120.041476 73.242903,109.171464 73.242903,109.171464" id="路径备份-327" stroke="#3E3A39" stroke-width="0.66" stroke-linecap="round" stroke-linejoin="round"></path>
                <line x1="110.673471" y1="121.441907" x2="118.294864" y2="124.35709" id="路径备份-328" stroke="#3E3A39" stroke-width="0.66" stroke-linecap="round" stroke-linejoin="round"></line>
                <line x1="115.217726" y1="114.925616" x2="123.163029" y2="117.840799" id="路径备份-329" stroke="#3E3A39" stroke-width="0.66" stroke-linecap="round" stroke-linejoin="round"></line>
                <line x1="144.083753" y1="95.0433065" x2="104.671624" y2="105.017805" id="路径备份-330" stroke="#3E3A39" stroke-width="0.66" stroke-linecap="round" stroke-linejoin="round"></line>
                <line x1="97.6980487" y1="120.489233" x2="88.54285" y2="121.098945" id="路径备份-331" stroke="#3E3A39" stroke-width="0.66" stroke-linecap="round" stroke-linejoin="round"></line>
                <path d="M126.678397,115.668702 C122.620005,116.030718 118.21865,125.271658 118.21865,125.271658 C117.456511,128.205894 124.887369,128.272581 124.887369,128.272581 C138.758305,129.301469 144.760152,127.319907 144.760152,127.319907 C148.647063,125.11923 147.808709,120.651188 147.808709,120.651188" id="路径备份-332" stroke="#3E3A39" stroke-width="0.66" stroke-linecap="round" stroke-linejoin="round"></path>
                <path d="M88.7333849,122.080199 C89.4955242,125.014435 82.0646658,125.081123 82.0646658,125.081123 C68.19373,126.110011 62.1918828,124.128449 62.1918828,124.128449" id="路径备份-333" stroke="#3E3A39" stroke-width="0.66" stroke-linecap="round" stroke-linejoin="round"></path>
                <path d="M133.394749,48.3813262 C135.300098,49.1910992 142.483261,47.8954624 142.483261,47.8954624 C140.823455,51.5082086 139.466009,55.2523379 138.424869,59.0893837 C134.052095,63.4621581 129.850802,58.7654745 129.850802,58.7654745 C131.28934,54.2212188 133.394749,48.3813262 133.394749,48.3813262 Z" id="路径备份-334" stroke="#3E3A39" stroke-width="0.66" fill="#FFFFFF" stroke-linecap="round" stroke-linejoin="round"></path>
                <line x1="134.852341" y1="51.9538543" x2="140.530279" y2="51.7918997" id="路径备份-335" stroke="#3E3A39" stroke-width="0.66" stroke-linecap="round" stroke-linejoin="round"></line>
            </g>
        </g>
    </g>
</svg>